<?xml version="1.0" encoding="UTF-8" standalone="no"?>
<!-- Created with Inkscape (http://www.inkscape.org/) -->

<svg
   width="101.60009mm"
   height="102.02792mm"
   viewBox="0 0 101.60009 102.02792"
   version="1.1"
   id="svg1"
   xml:space="preserve"
   sodipodi:docname="Unnamed document 2"
   xmlns:inkscape="http://www.inkscape.org/namespaces/inkscape"
   xmlns:sodipodi="http://sodipodi.sourceforge.net/DTD/sodipodi-0.dtd"
   xmlns="http://www.w3.org/2000/svg"
   xmlns:svg="http://www.w3.org/2000/svg"><sodipodi:namedview
     id="namedview1"
     pagecolor="#ffffff"
     bordercolor="#666666"
     borderopacity="1.0"
     inkscape:showpageshadow="2"
     inkscape:pageopacity="0.0"
     inkscape:pagecheckerboard="0"
     inkscape:deskcolor="#d1d1d1"
     inkscape:document-units="mm"
     showgrid="false" /><defs
     id="defs1" /><g
     inkscape:label="Layer 1"
     inkscape:groupmode="layer"
     id="layer1"
     transform="translate(-429.67161,-308.21725)"><g
       id="g165"
       transform="translate(-121.70968,91.548387)"><path
         style="fill:#fafafa"
         d="m 551.38129,267.46884 c 0,-50.8 0,-50.8 50.8,-50.8 50.8,0 50.8,0 50.8,50.8 0,50.8 0,50.8 -50.8,50.8 -50.8,0 -50.8,0 -50.8,-50.8 z"
         id="path166" /><path
         style="fill:#171717"
         d="m 567.14405,313.70477 c -0.0805,-2.51023 -0.21557,-5.73205 -0.30017,-7.15959 -0.0896,-1.51212 -0.033,-3.1588 0.13559,-3.94499 0.26664,-1.24327 0.24326,-1.39859 -0.29711,-1.97379 -4.11819,-4.38361 1.35271,-10.13881 9.63797,-10.13881 3.64012,0 6.25352,6.37826 3.67139,8.9604 -0.95721,0.9572 -1.01593,1.10588 -0.91433,2.3151 0.16164,1.9239 -0.25924,2.31924 -1.24547,1.16991 -0.93239,-1.08659 -1.16617,1.13126 -0.3615,3.42959 0.63881,1.82458 0.77756,3.78717 0.30141,4.26333 -0.21778,0.21777 -0.45643,0.86565 -0.53034,1.43974 -0.0739,0.57409 -0.27039,2.10207 -0.4366,3.39551 -0.33424,2.60104 -0.40643,2.80767 -0.98088,2.80767 -0.21828,0 -0.32095,-0.12284 -0.22817,-0.27297 0.24326,-0.3936 0.91052,-4.95227 0.91612,-6.25884 0.005,-1.0967 -0.004,-1.10674 -0.85515,-0.9984 -0.47295,0.0602 -2.37795,0.18376 -4.23334,0.27459 -3.37343,0.16515 -3.37343,0.16515 -3.37343,3.71038 0,5.83293 -0.71196,5.0323 -0.90599,-1.01883 z m 8.49108,-3.66518 c 1.92051,-0.33444 2.02603,-0.58476 1.28131,-3.03964 -0.21683,-0.71477 -0.3953,-2.3267 -0.39687,-3.58465 -0.003,-2.17691 -3.78686,-3.44773 -4.85356,-1.62997 -1.25125,2.13226 -2.25202,2.54249 -3.11829,1.27825 -0.81952,-1.19601 -0.98351,-0.8053 -1.00825,2.40218 -0.0384,4.97732 -0.11578,4.86558 3.36913,4.86558 1.67817,0 3.80511,-0.13129 4.72653,-0.29175 z m -5.45349,-7.7119 c 0.64465,-0.77274 0.63489,-0.90176 -0.0811,-1.07227 -0.32742,-0.078 -0.86321,-0.22481 -1.19063,-0.32629 -0.73153,-0.22673 -0.7467,0.0225 -0.069,1.13398 0.62283,1.02152 0.69706,1.03617 1.34075,0.26458 z m 8.00718,-1.54257 c -0.55817,-0.55817 -0.95122,0.22192 -0.44977,0.89265 0.49744,0.66536 0.49744,0.66536 0.58427,-0.003 0.0478,-0.36758 -0.0128,-0.76793 -0.1345,-0.88967 z m -6.50989,-1.3017 c 0.3074,-0.7276 0.68822,-1.32292 0.84626,-1.32292 0.38924,0 0.36155,0.36857 -0.113,1.50433 -0.5243,1.25483 -0.57447,1.23688 2.3767,0.85077 3.10471,-0.40619 3.57147,-0.65985 2.95251,-1.60451 -0.40039,-0.61107 -0.35408,-1.01517 0.11633,-1.01517 0.10698,0 0.42798,0.36875 0.71334,0.81945 1.49184,2.35618 2.24783,-2.40148 0.8102,-5.09876 -1.51176,-2.83635 -2.18446,-3.00681 -7.74488,-1.9625 -4.33132,0.81347 -6.41564,4.51954 -3.97321,7.06462 2.31995,2.41744 3.24321,2.59325 4.01575,0.76469 z m 1.53048,-3.96875 c 0.0899,-0.14552 0.21603,-0.26458 0.2802,-0.26458 0.0642,0 0.11668,0.11906 0.11668,0.26458 0,0.14552 -0.12609,0.26458 -0.2802,0.26458 -0.15411,0 -0.20662,-0.11906 -0.11668,-0.26458 z m 3.83646,-0.26458 c 0,-0.14552 0.11906,-0.26459 0.26458,-0.26459 0.14552,0 0.26459,0.11907 0.26459,0.26459 0,0.14552 -0.11907,0.26458 -0.26459,0.26458 -0.14552,0 -0.26458,-0.11906 -0.26458,-0.26458 z m -5.55625,-0.21483 c 0,-0.21549 1.44077,-1.37267 1.70908,-1.37267 0.3281,0 0.10757,0.7438 -0.34085,1.14962 -0.50342,0.45558 -1.36823,0.59657 -1.36823,0.22305 z m 5.08,-0.89642 c -0.36942,-0.36942 -0.42339,-1.00542 -0.0853,-1.00542 0.1277,0 0.3804,0.17859 0.56156,0.39688 0.18116,0.21828 0.55292,0.39687 0.82615,0.39687 0.27322,0 0.49677,0.11906 0.49677,0.26458 0,0.37218 -1.41572,0.33054 -1.79917,-0.0529 z m 15.51224,22.89867 c -1.62332,-3.66978 1.21743,-6.17701 6.99869,-6.17701 2.5747,0 2.5747,0 2.50699,-21.3651 -0.0677,-21.3651 -0.0677,-21.3651 -25.13698,-21.43259 -24.84907,-0.0669 -25.06927,-0.0721 -25.06927,-0.59531 0,-0.51579 0.18319,-0.52783 8.0296,-0.52783 8.02961,0 8.02961,0 8.43755,-0.99219 0.38214,-0.92946 1.37917,-7.3225 1.22909,-7.881 -0.0633,-0.23566 0.19206,-1.91926 0.48016,-3.16535 0.0673,-0.29104 0.20208,-1.97545 0.29953,-3.74314 0.14031,-2.54491 0.27575,-3.32274 0.65064,-3.73652 0.30108,-0.33231 0.5025,-1.04059 0.55324,-1.94541 0.10476,-1.86818 0.69012,-2.93313 2.17301,-3.95338 0.66805,-0.45963 1.62534,-1.1963 2.12731,-1.63703 0.92343,-0.81078 2.94365,-0.93768 5.61999,-0.35301 3.22391,0.7043 3.33548,3.9778 0.29713,8.71741 -1.33428,2.08138 -0.0625,5.55947 2.87883,7.87313 0.41757,0.32846 0.56053,0.60446 0.39753,0.76746 -0.45104,0.45105 -1.37966,-0.48341 -3.18746,-3.2075 -1.91309,-2.88276 -2.2049,-3.19343 -2.2049,-2.34744 0,0.31177 -0.24311,1.519 -0.54024,2.68275 -0.49209,1.92733 -0.50642,3.13194 -0.0372,3.13145 0.0993,-10e-5 0.18061,2.17279 0.18061,4.82865 0,4.82883 0,4.82883 7.14375,4.82883 5.2553,0 7.1285,-0.0807 7.08606,-0.30535 -0.0317,-0.16795 0.1171,-0.45042 0.33073,-0.62771 2.00659,-1.66532 0.4035,-2.61248 -4.33189,-2.55942 -5.14437,0.0576 -5.59844,-0.0536 -5.59844,-1.37106 0,-0.90069 0.51311,-1.19787 2.77812,-1.60906 2.52663,-0.45868 2.4617,-0.43031 2.55917,-1.11799 0.0704,-0.49648 0.27329,-0.62694 1.07886,-0.69361 0.5457,-0.0452 0.99218,-0.19974 0.99218,-0.3435 0,-0.14376 0.38696,-0.4241 0.8599,-0.62296 1.15988,-0.48772 1.52135,-0.13346 1.52135,1.49099 0,2.35527 1.17528,3.63378 2.5265,2.74843 1.25151,-0.82003 0.47324,-3.17517 -1.33406,-4.03701 -1.12997,-0.53885 -1.23177,-0.95204 -0.14085,-0.57175 0.74752,0.26059 2.20623,1.66636 2.43204,2.34379 0.0608,0.18243 0.82762,0.36854 1.81653,0.44088 0.94122,0.0688 2.03872,0.22979 2.43891,0.35764 0.7276,0.23245 0.7276,0.23245 0.7276,-21.7142 0,-21.75165 0.005,-21.94665 0.52782,-21.94665 0.52319,0 0.52842,0.2202 0.59532,25.06927 0.0675,25.06927 0.0675,25.06927 18.32373,25.06927 18.07986,0 18.25625,-0.005 18.25625,-0.52917 0,-0.48404 -0.23871,-0.54511 -2.79919,-0.71614 -2.73088,-0.18241 -4.05224,-0.40792 -5.66747,-0.96723 -1.68967,-0.58507 -4.26896,-1.34168 -5.02289,-1.4734 -1.6743,-0.29252 -6.21793,-2.8499 -7.70452,-4.33648 -0.79618,-0.79618 -1.88963,-1.68266 -2.42989,-1.96995 -5.73699,-3.05074 -7.88871,-6.14401 -5.75681,-8.27591 0.78139,-0.78139 0.93284,-0.79193 2.08439,-0.14514 0.49382,0.27736 1.18205,0.66431 1.52941,0.85989 0.34735,0.19559 0.92921,0.60452 1.29302,0.90873 0.72267,0.6043 1.61339,0.97916 3.43547,1.44579 0.65259,0.16712 1.64034,0.66329 2.19502,1.1026 1.41908,1.12393 1.50747,0.73931 0.16484,-0.71727 -1.13519,-1.23154 -2.05911,-1.76394 -3.67831,-2.11957 -3.19437,-0.70161 -5.85153,-5.15318 -4.11343,-6.89128 0.81517,-0.81516 1.37484,-0.8124 4.25074,0.021 2.0382,0.59064 2.42745,0.63103 3.27074,0.33934 0.52647,-0.1821 1.47104,-0.29382 2.09905,-0.24826 0.72822,0.0528 1.30328,-0.0577 1.5875,-0.30518 2.89957,-2.52447 10.48077,-1.50701 11.83045,1.58773 0.23954,0.54925 0.77634,1.71301 1.19289,2.58614 1.18111,2.4757 2.90045,7.28065 2.90045,8.10572 0,0.55797 1.7228,1.34583 3.43959,1.57297 0.80036,0.10589 1.81239,0.26132 2.24895,0.3454 2.89248,0.55705 6.11415,0.88856 6.5207,0.67098 0.30124,-0.16122 0.5212,-0.14425 0.64089,0.0494 0.45196,0.73128 -1.29989,0.96347 -3.87185,0.51319 -1.80953,-0.31681 -3.09286,-0.50792 -5.29434,-0.78843 -0.95701,-0.12194 -2.11196,-0.41405 -2.56655,-0.64913 -0.45459,-0.23508 -0.88028,-0.42741 -0.94598,-0.42741 -0.0657,0 -0.20107,0.74414 -0.30084,1.65364 -0.66718,6.0825 -4.02863,7.90178 -9.13915,4.9463 -3.6944,-2.13653 -3.90227,-4.61177 -0.68757,-8.18744 1.30831,-1.45521 1.30831,-1.45521 -0.0322,-1.62182 -1.61315,-0.20048 -2.75322,-1.00462 -4.33965,-3.06093 -1.77149,-2.29618 -6.47028,-5.75746 -8.755,-6.44922 -1.78504,-0.54046 -2.05238,-0.4902 -2.05238,0.38584 0,0.32984 -0.29766,0.87935 -0.66146,1.22113 -1.38062,1.29702 0.82391,3.44741 4.59857,4.48564 1.83671,0.50519 4.4923,3.76479 3.87754,4.75949 -0.22834,0.36946 -1.32232,-0.0934 -2.48419,-1.05116 -0.56083,-0.46228 -1.85424,-1.06525 -3.10036,-1.44534 -1.18223,-0.3606 -2.36565,-0.90413 -2.64711,-1.21578 -1.12972,-1.25088 -3.62353,-2.24827 -4.1943,-1.67749 -1.2923,1.2923 2.51238,6.46339 4.7555,6.46339 0.35276,0 2.58095,1.66881 3.71318,2.781 1.16133,1.14077 2.3255,1.84298 6.02455,3.63393 0.44271,0.21434 2.51946,0.81659 5.3212,1.54312 0.57635,0.14946 1.17167,0.36738 1.32292,0.48428 0.49832,0.38515 2.62535,0.7599 4.50833,0.79431 3.48522,0.0637 4.06025,0.22654 4.1525,1.17609 0.10548,1.08575 3.56446,1.49125 3.83681,0.44979 0.31398,-1.20065 5.15625,-1.66844 6.22339,-0.60121 0.51628,0.51633 0.54635,0.64059 0.20709,0.85585 -0.27799,0.17639 0.0588,0.25303 1.12448,0.25587 1.34232,0.004 1.52136,0.0662 1.52136,0.53188 0,0.52318 -0.2202,0.52841 -25.06928,0.59531 -25.06927,0.0675 -25.06927,0.0675 -25.13675,25.13676 -0.0664,24.65383 -0.076,25.06927 -0.58333,25.06927 -0.54439,0 -1.03836,-1.52405 -0.68125,-2.10187 0.40901,-0.66178 -0.14019,-1.3668 -0.96362,-1.23703 -0.43831,0.0691 -0.81546,0.16398 -0.83812,0.21089 -0.0227,0.0469 -0.18738,0.34733 -0.36604,0.6676 -0.26521,0.47539 -0.25306,0.65408 0.0661,0.97329 0.71892,0.71892 0.1179,1.48712 -1.16351,1.48712 -0.70452,0 -0.86714,-0.31766 -0.9751,-1.9048 -0.1149,-1.68911 -0.0839,-1.66747 -1.87381,-1.308 -1.83393,0.3683 -1.73069,0.26518 -1.88624,1.88406 -0.16441,1.71099 -0.69865,1.74742 -1.42853,0.0974 z m 6.46022,-0.22283 c -0.21465,-1.12288 0.6229,-2.51459 1.51331,-2.51459 1.35334,0 1.59673,-0.22614 1.59673,-1.48352 0,-1.37851 -4.04342,-1.77775 -6.41248,-0.63315 -0.60239,0.29104 -1.23072,0.52917 -1.3963,0.52917 -0.87925,0 -1.58263,1.54072 -1.47967,3.24114 0.0439,0.72578 0.51265,0.54171 0.60577,-0.23789 0.0968,-0.81035 0.36746,-0.97863 2.27488,-1.41432 2.24768,-0.51341 2.70363,-0.27483 2.70363,1.41472 0,0.77334 0.0794,1.48544 0.17639,1.58246 0.36206,0.36205 0.54005,0.15582 0.41774,-0.48402 z m -20.43788,-54.07942 c 0,-4.20442 0,-4.20442 -1.91823,-4.3534 -1.05502,-0.0819 -2.87891,-0.22806 -4.05308,-0.32472 -2.34967,-0.19342 -2.36618,-0.16421 -2.91208,5.15357 -0.0957,0.93225 -0.33874,2.08928 -0.54009,2.57119 -0.20136,0.4819 -0.3661,0.93955 -0.3661,1.01698 0,0.0774 2.20266,0.14079 4.89479,0.14079 4.89479,0 4.89479,0 4.89479,-4.20441 z m 18.24516,1.62472 c 0.008,-0.59289 -0.11214,-0.85989 -0.38578,-0.85989 -0.25586,0 -0.39791,0.25853 -0.39979,0.7276 -0.002,0.40018 -0.0674,1.20386 -0.1461,1.78594 -0.14319,1.05833 -0.14319,1.05833 0.3887,0.13229 0.29253,-0.50932 0.53687,-1.31299 0.54297,-1.78594 z m 4.49195,2.20337 c 1.02401,-1.23386 0.19129,-2.93097 -1.43815,-2.93097 -1.5875,0 -1.5875,0 -1.66627,1.65365 -0.0801,1.6824 2.04317,2.55604 3.10442,1.27732 z m 48.96498,0.14413 c 0,-0.64796 -0.85292,-0.89316 -2.51466,-0.72291 -3.45548,0.35403 -3.45477,0.9551 10e-4,0.9551 1.38245,0 2.51355,-0.10448 2.51355,-0.23219 z m -54.93412,-0.85922 c 0.091,-0.45475 0.16537,-1.22063 0.16537,-1.70196 0,-0.94506 0.83527,-1.50427 1.40134,-0.9382 0.34504,0.34504 0.27261,2.28191 -0.11223,3.00098 -0.2358,0.44059 -0.19004,0.4966 0.34393,0.42096 0.5554,-0.0787 0.62389,-0.24258 0.69705,-1.66839 0.0981,-1.9116 0.15187,-1.95073 2.45445,-1.78598 1.83004,0.13094 1.83004,0.13094 1.83004,-0.91824 0,-1.69638 -4.76822,-2.78662 -4.97966,-1.13859 -0.24483,1.90835 -3.75066,1.56596 -3.75176,-0.36641 -2e-4,-0.34465 -5.39487,-0.39561 -6.879,-0.065 -1.77502,0.39544 -1.81689,0.42421 -1.7939,1.23277 0.0296,1.04137 0.78988,1.16962 5.79363,0.97731 3.85747,-0.14825 5.96813,1.56744 3.84139,3.12255 -0.60373,0.44146 -0.53996,0.655 0.1956,0.655 0.49213,0 0.66424,-0.17929 0.79375,-0.82683 z m 41.97434,-2.77784 c 2.29831,-0.9196 3.18445,-6.47879 1.68177,-10.55054 -0.37594,-1.01865 -0.89451,-2.4474 -1.15238,-3.175 -1.8446,-5.20455 -3.7951,-7.0312 -7.71488,-7.22497 -3.56127,-0.17605 -5.95804,0.75774 -4.23367,1.64945 0.41607,0.21515 0.90676,0.75399 1.09043,1.19742 0.18368,0.44342 0.37488,0.80622 0.4249,0.80622 0.05,0 0.65785,-0.19246 1.35073,-0.4277 1.46248,-0.49653 3.54716,-0.37527 4.81435,0.28002 1.32459,0.68497 0.87125,5.78453 -0.63643,7.15914 -0.15961,0.14552 -0.62608,0.79115 -1.0366,1.43474 -0.41052,0.64358 -1.06685,1.43979 -1.45851,1.76935 -3.9089,3.28912 1.75581,9.12828 6.87029,7.08187 z m -46.14629,-3.42843 c -0.0883,-0.23018 -0.1606,-0.52784 -0.1606,-0.66146 0,-0.13362 -0.28115,-0.24294 -0.62477,-0.24294 -0.52375,0 -0.60432,0.10695 -0.49832,0.66146 0.0946,0.49464 0.29262,0.66145 0.78537,0.66145 0.49214,0 0.61827,-0.10592 0.49832,-0.41851 z m 2.05739,-0.74235 c -0.0388,-1.22012 -0.16816,-1.34727 -0.93856,-0.92267 -0.52724,0.29059 -0.54999,0.35485 -0.15495,0.43771 0.64517,0.13533 0.57784,0.56015 -0.13229,0.83471 -0.59532,0.23017 -0.59532,0.23017 0.0661,0.50293 0.96875,0.39947 1.19421,0.23369 1.15966,-0.85268 z m -15.18257,-2.81638 c 0,-0.8778 0.1609,-1.98111 0.35757,-2.45179 1.09584,-2.62272 0.87868,-3.28078 -1.20519,-3.65207 -1.68947,-0.30101 -2.08355,-0.48687 -3.15623,-1.48858 -1.01693,-0.94966 -1.25456,-1.06945 -1.39508,-0.70327 -0.23108,0.6022 -0.67627,4.94408 -0.68191,6.65056 -0.003,0.76398 -0.12364,1.38906 -0.26916,1.38906 -0.32185,0 -0.33858,-5.18664 -0.022,-6.82389 0.15603,-0.80697 0.13356,-1.10694 -0.0777,-1.03714 -0.1797,0.0594 -0.36252,1.18807 -0.46245,2.85514 -0.0909,1.51631 -0.29925,3.46341 -0.46302,4.32688 -0.45035,2.37445 -0.57042,2.23552 2.01734,2.33409 6.01223,0.22902 5.35782,0.39989 5.35782,-1.39899 z m 55.04992,-5.40965 c 1.53787,-3.39169 0.76957,-4.88792 -2.51456,-4.89699 -1.15708,-0.003 -1.25161,0.0371 -0.8225,0.35091 0.58675,0.42904 0.38655,2.14218 -0.28024,2.39805 -1.16816,0.44827 -1.69096,0.0305 -1.69096,-1.3514 0,-0.98 -0.72682,-0.30717 -0.94931,0.87878 -0.70461,3.75586 4.71391,6.02512 6.25757,2.62065 z m -51.97918,-2.85008 c 0.54581,-0.90951 1.20928,-1.9376 1.47436,-2.28464 3.15029,-4.1243 -2.97374,-7.64769 -7.40036,-4.25771 -2.46494,1.88769 -3.24005,3.08772 -2.67559,4.14241 2.24528,4.19535 6.767,5.45696 8.60159,2.39994 z m -4.14468,-0.74321 c -1.44538,-1.44538 -0.0453,-2.79996 2.66144,-2.57493 1.09529,0.0911 1.43008,1.3223 0.67352,2.47697 -0.56459,0.86167 -2.51399,0.91893 -3.33496,0.098 z m 2.92602,-1.34748 c 0,-0.71638 -0.0722,-0.79595 -0.59531,-0.65577 -0.32742,0.0877 -0.93065,0.16117 -1.34049,0.16316 -1.12374,0.005 -0.93828,1.3869 0.21601,1.60911 1.14581,0.22057 1.71979,-0.15206 1.71979,-1.1165 z m 1.32292,-1.56295 c 0,-0.15411 0.11906,-0.20661 0.26458,-0.11668 0.14552,0.0899 0.26458,0.21603 0.26458,0.2802 0,0.0642 -0.11906,0.11668 -0.26458,0.11668 -0.14552,0 -0.26458,-0.12609 -0.26458,-0.2802 z m -4.49792,-0.77814 c 0,-0.14552 0.11906,-0.26458 0.26458,-0.26458 0.14552,0 0.26459,0.11906 0.26459,0.26458 0,0.14553 -0.11907,0.26459 -0.26459,0.26459 -0.14552,0 -0.26458,-0.11906 -0.26458,-0.26459 z m 49.70654,2.26757 c -0.20946,-0.73874 -0.37953,-0.93109 -1.28779,-1.45656 -1.41616,-0.81931 -5.2515,-0.42889 -4.09489,0.41684 0.25778,0.18849 0.56975,0.28024 0.69329,0.20389 0.12354,-0.0763 0.46318,-0.18476 0.75477,-0.24092 0.53884,-0.10377 0.62513,0.0729 0.54236,1.11018 -0.0329,0.41236 0.24797,0.76702 0.96679,1.22079 0.55723,0.35177 1.18618,0.84807 1.39767,1.10288 0.54883,0.66131 1.35769,-1.19368 1.0278,-2.3571 z m -15.71583,68.04545 c -0.11088,-2.51023 -0.21391,-6.42059 -0.22897,-8.68969 -0.0174,-2.62521 -0.13587,-4.26103 -0.32571,-4.49792 -1.85431,-2.31384 -0.32839,-7.66346 2.5473,-8.93044 2.9231,-1.28786 8.45007,-1.45611 9.53903,-0.29037 2.4427,2.61493 3.05768,6.37602 1.32573,8.10798 -0.90364,0.90364 -1.06563,1.21563 -0.92404,1.77977 0.44772,1.78387 -0.48441,3.22598 -1.20947,1.8712 -0.8406,-1.57069 -1.13429,0.9752 -0.39401,3.41548 0.41507,1.36823 0.54176,4.38972 0.18407,4.38972 -0.11547,0 -0.42383,1.45852 -0.68524,3.24115 -0.58704,4.00315 -0.63173,4.16719 -1.13533,4.16719 -0.28423,0 -0.3497,-0.13996 -0.21662,-0.46302 0.24859,-0.60349 0.70549,-4.07363 0.75396,-5.72629 0.038,-1.29452 0.038,-1.29452 -2.21099,-1.2272 -3.99029,0.11944 -6.21534,0.38135 -6.25079,0.73578 -0.0182,0.1819 -0.048,1.75948 -0.0661,3.50573 -0.0489,4.68944 -0.47115,3.85474 -0.70278,-1.38907 z m 8.40877,-3.67196 c 2.03813,-0.31777 2.06095,-0.36433 1.39838,-2.85388 -0.2097,-0.78794 -0.40853,-2.49513 -0.44183,-3.79376 -0.0606,-2.36116 -0.0606,-2.36116 -0.83929,-2.20541 -0.42829,0.0857 -1.45375,0.15574 -2.27878,0.15574 -1.48917,0 -1.50738,0.01 -2.50893,1.32292 -1.19645,1.56889 -1.52206,1.62396 -2.35493,0.39828 -0.86678,-1.27559 -0.97869,-1.00505 -0.97536,2.3578 0.004,4.43761 0.11665,4.87123 1.2862,4.96894 1.49909,0.12524 4.75175,-0.0446 6.71454,-0.35063 z m -4.83816,-8.49887 c 0.005,-0.10914 -0.28112,-0.19844 -0.63633,-0.19844 -0.35521,0 -0.71943,-0.11906 -0.80937,-0.26458 -0.72955,-1.18045 -1.07638,-0.0205 -0.35795,1.19718 0.5342,0.9054 1.74873,0.41103 1.80365,-0.73416 z m 7.50246,-0.74882 c -0.55817,-0.55817 -0.95122,0.22192 -0.44976,0.89265 0.49744,0.66536 0.49744,0.66536 0.58427,-0.003 0.0477,-0.36758 -0.0128,-0.76793 -0.13451,-0.88967 z m -6.4959,-1.35599 c 0.429,-0.97553 0.6815,-1.28341 0.88534,-1.07957 0.20384,0.20384 0.15485,0.55981 -0.17178,1.24814 -0.60925,1.2839 -0.56003,1.30287 2.38241,0.9179 3.12126,-0.40835 3.57271,-0.65797 2.93906,-1.62503 -0.31372,-0.4788 -0.35817,-0.7355 -0.14968,-0.86435 0.27522,-0.1701 1.02762,0.54456 1.04669,0.99418 0.0586,1.38252 1.59591,-0.84555 1.59591,-2.31305 0,-3.05391 -1.93507,-5.56387 -4.2743,-5.54415 -8.08482,0.0682 -12.01789,4.35984 -7.56441,8.25407 2.04124,1.78491 2.53025,1.78666 3.31076,0.0119 z m 1.4724,-3.82626 c 0.097,-0.097 0.25576,-0.097 0.35277,0 0.097,0.097 0.0176,0.17638 -0.17638,0.17638 -0.19403,0 -0.27341,-0.0794 -0.17639,-0.17638 z m 3.88055,-0.3684 c 0,-0.15411 0.11906,-0.20661 0.26459,-0.11667 0.14552,0.0899 0.26458,0.21602 0.26458,0.28019 0,0.0642 -0.11906,0.11668 -0.26458,0.11668 -0.14553,0 -0.26459,-0.12609 -0.26459,-0.2802 z m -5.55625,-0.19921 c 0,-0.30495 1.59872,-1.44965 1.77643,-1.27194 0.28193,0.28193 -0.73376,1.48677 -1.25336,1.48677 -0.28769,0 -0.52307,-0.0967 -0.52307,-0.21483 z m 5.01375,-0.91272 c -0.39435,-0.36739 -0.47702,-0.60459 -0.27956,-0.80206 0.19747,-0.19746 0.42534,-0.14921 0.7705,0.16315 0.26956,0.24395 0.68909,0.44354 0.93229,0.44354 0.68313,0 0.52238,0.45215 -0.21055,0.59226 -0.41874,0.0801 -0.85347,-0.0622 -1.21268,-0.39689 z"
         id="path165"
         sodipodi:nodetypes="sssssssssssssscsssssscsssssssssssssssssssssssssssssssssssssssssssssssssssssssssssssssssssssssssssssssssssssssssssssssssssssssssssssscssssssssssssssssssssssssssssssssssscsssssssssssssssssssssssssssssssssscscsscssssssssssssssssssssssssssssssssssssssssssssssssssssssssscssssssssscssssssssssssssssscssssssssssssssssssssssssssssssssssssscssssssscscsscssscssssssssssssssssssssssssssssssssssss" /></g><g
       id="g168"
       transform="matrix(0.03576591,0,0,0.03576591,489.89841,321.84633)"><path
         style="fill:#00acee"
         d="m 492.89419,873.0218 -144.66666,-20.4422 -0.13785,-0.13785 -0.13785,-0.13784 -0.22776,-106.72604 -0.22776,-106.72603 0.0916,-0.0951 0.0916,-0.0951 145.80054,0.19765 145.80053,0.19765 v 127.22819 127.22819 l -0.85989,-0.0246 -0.8599,-0.0247 z m -276.02082,-38.11663 -104.24582,-14.36276 -5.35782,-0.7335 -5.35781,-0.7335 v -91.63314 -91.63314 l 10.78177,-4.1e-4 10.78177,-4.1e-4 80.83021,0.51913 80.8302,0.51913 18.05781,0.17461 18.05781,0.17461 6e-5,35.62073 5e-5,35.62073 0.17617,70.44531 0.17617,70.44531 -0.24237,-0.03 -0.24237,-0.03 z m -115.07801,-284.35801 -0.18202,-63.30156 0.0831,-28.29804 0.0832,-28.29803 108.21458,-14.74312 108.21458,-14.74311 1.65364,-0.1829 1.65365,-0.1829 v 105.99644 105.99644 l -10.3849,0.004 -10.38489,0.004 -87.3125,0.52094 -87.31249,0.52094 -12.07196,0.004 -12.07196,0.004 z m 246.24487,-46.01835 0.0665,-107.73241 144.59478,-21.09944 144.59479,-21.09944 0.99219,-0.15564 0.99218,-0.15565 v 127.77429 127.7743 l -1.91823,0.14133 -1.91822,0.14133 -142.61041,1.08293 -142.61041,1.08293 -1.1248,-0.0111 -1.1248,-0.0111 z"
         id="path168" /></g><text
       xml:space="preserve"
       style="font-style:normal;font-variant:normal;font-weight:normal;font-stretch:normal;font-size:5.6322px;line-height:1.25;font-family:'Bradley Hand ITC';-inkscape-font-specification:'Bradley Hand ITC, Normal';font-variant-ligatures:normal;font-variant-caps:normal;font-variant-numeric:normal;font-variant-east-asian:normal;text-decoration:none;text-decoration-line:none;text-decoration-color:#000000;letter-spacing:0px;word-spacing:0px;fill:#000000;stroke:#000000;stroke-width:0.140806;stop-color:#000000"
       x="439.04697"
       y="325.21036"
       id="text169"><tspan
         sodipodi:role="line"
         id="tspan169"
         x="439.04697"
         y="325.21036"
         style="font-style:normal;font-variant:normal;font-weight:normal;font-stretch:normal;font-size:5.6322px;font-family:'Bradley Hand ITC';-inkscape-font-specification:'Bradley Hand ITC, Normal';font-variant-ligatures:normal;font-variant-caps:normal;font-variant-numeric:normal;font-variant-east-asian:normal;stroke:#000000;stroke-width:0.140806">Oh, che carino!</tspan></text><text
       xml:space="preserve"
       style="font-style:normal;font-variant:normal;font-weight:normal;font-stretch:normal;font-size:5.6322px;line-height:1.25;font-family:'Bradley Hand ITC';-inkscape-font-specification:'Bradley Hand ITC, Normal';font-variant-ligatures:normal;font-variant-caps:normal;font-variant-numeric:normal;font-variant-east-asian:normal;text-decoration:none;text-decoration-line:none;text-decoration-color:#000000;letter-spacing:0px;word-spacing:0px;fill:#000000;stroke:#000000;stroke-width:0.140806;stop-color:#000000"
       x="441.82281"
       y="377.01782"
       id="text169-1"><tspan
         sodipodi:role="line"
         id="tspan169-9"
         x="441.82281"
         y="377.01782"
         style="font-style:normal;font-variant:normal;font-weight:normal;font-stretch:normal;font-size:5.6322px;font-family:'Bradley Hand ITC';-inkscape-font-specification:'Bradley Hand ITC, Normal';font-variant-ligatures:normal;font-variant-caps:normal;font-variant-numeric:normal;font-variant-east-asian:normal;stroke:#000000;stroke-width:0.140806">Oh, no...</tspan></text><text
       xml:space="preserve"
       style="font-style:normal;font-variant:normal;font-weight:normal;font-stretch:normal;font-size:4.29499px;line-height:1;font-family:'Bradley Hand ITC';-inkscape-font-specification:'Bradley Hand ITC, Normal';font-variant-ligatures:normal;font-variant-caps:normal;font-variant-numeric:normal;font-variant-east-asian:normal;text-decoration:none;text-decoration-line:none;text-decoration-color:#000000;letter-spacing:0px;word-spacing:0px;fill:#000000;stroke:#000000;stroke-width:0.107375;stop-color:#000000"
       x="483.16104"
       y="324.62402"
       id="text169-9"><tspan
         sodipodi:role="line"
         id="tspan169-6"
         x="483.16104"
         y="324.62402"
         style="font-style:normal;font-variant:normal;font-weight:normal;font-stretch:normal;font-size:4.29499px;line-height:1;font-family:'Bradley Hand ITC';-inkscape-font-specification:'Bradley Hand ITC, Normal';font-variant-ligatures:normal;font-variant-caps:normal;font-variant-numeric:normal;font-variant-east-asian:normal;stroke:#000000;stroke-width:0.107375">LE RIGHE DEVONO</tspan><tspan
         sodipodi:role="line"
         x="483.16104"
         y="328.91901"
         style="font-style:normal;font-variant:normal;font-weight:normal;font-stretch:normal;font-size:4.29499px;line-height:1;font-family:'Bradley Hand ITC';-inkscape-font-specification:'Bradley Hand ITC, Normal';font-variant-ligatures:normal;font-variant-caps:normal;font-variant-numeric:normal;font-variant-east-asian:normal;stroke:#000000;stroke-width:0.107375"
         id="tspan170">TERMINARE CON \r\n</tspan></text><text
       xml:space="preserve"
       style="font-style:normal;font-variant:normal;font-weight:normal;font-stretch:normal;font-size:5.6322px;line-height:1.25;font-family:'Bradley Hand ITC';-inkscape-font-specification:'Bradley Hand ITC, Normal';font-variant-ligatures:normal;font-variant-caps:normal;font-variant-numeric:normal;font-variant-east-asian:normal;text-decoration:none;text-decoration-line:none;text-decoration-color:#000000;letter-spacing:0px;word-spacing:0px;fill:#000000;stroke:#000000;stroke-width:0.140806;stop-color:#000000"
       x="487.24216"
       y="377.01782"
       id="text171"><tspan
         sodipodi:role="line"
         id="tspan171"
         x="487.24216"
         y="377.01782"
         style="font-style:normal;font-variant:normal;font-weight:normal;font-stretch:normal;font-size:5.6322px;font-family:'Bradley Hand ITC';-inkscape-font-specification:'Bradley Hand ITC, Normal';font-variant-ligatures:normal;font-variant-caps:normal;font-variant-numeric:normal;font-variant-east-asian:normal;stroke:#000000;stroke-width:0.140806">è ritardato</tspan></text></g></svg>
