<svg version="1.1" xmlns="http://www.w3.org/2000/svg" viewBox="0 0 515.8653855928496 454.76513989646537" width="515.8653855928496" height="454.76513989646537" filter="invert(93%) hue-rotate(180deg)">
  <!-- svg-source:excalidraw -->
  
  <defs>
    <style class="style-fonts">
      @font-face {
        font-family: "Virgil";
        src: url("https://excalidraw.com/Virgil.woff2");
      }
      @font-face {
        font-family: "Cascadia";
        src: url("https://excalidraw.com/Cascadia.woff2");
      }
      @font-face {
        font-family: "Assistant";
        src: url("https://excalidraw.com/Assistant-Regular.woff2");
      }
    </style>
    
  </defs>
  <g stroke-linecap="round" transform="translate(180.46133683419612 10) rotate(0 80.90164730399192 80.90164730399283)"><path d="M20.5 27.09 C20.5 27.09, 20.5 27.09, 20.5 27.09 M20.5 27.09 C20.5 27.09, 20.5 27.09, 20.5 27.09 M0.43 74.57 C22.83 48.8, 45.24 23.02, 63.41 2.12 M0.43 74.57 C24.92 46.39, 49.42 18.21, 63.41 2.12 M2 97.14 C24.9 70.8, 47.81 44.46, 85.98 0.54 M2 97.14 C28.01 67.23, 54.01 37.31, 85.98 0.54 M7.52 115.19 C32.62 86.32, 57.71 57.45, 104.62 3.49 M7.52 115.19 C34.59 84.04, 61.66 52.9, 104.62 3.49 M16.31 129.46 C47.24 93.88, 78.18 58.29, 119.97 10.21 M16.31 129.46 C38.69 103.72, 61.06 77.98, 119.97 10.21 M27.08 141.46 C66.05 96.63, 105.02 51.8, 133.36 19.2 M27.08 141.46 C56.78 107.29, 86.49 73.12, 133.36 19.2 M40.46 150.45 C73.65 112.27, 106.84 74.09, 144.12 31.21 M40.46 150.45 C68.86 117.79, 97.25 85.12, 144.12 31.21 M55.16 157.93 C93.75 113.55, 132.33 69.16, 153.57 44.72 M55.16 157.93 C80.27 129.05, 105.38 100.17, 153.57 44.72 M73.14 161.63 C97.88 133.18, 122.62 104.72, 159.74 62.01 M73.14 161.63 C102.33 128.06, 131.52 94.48, 159.74 62.01 M94.4 161.57 C112.52 140.72, 130.64 119.88, 161.98 83.83 M94.4 161.57 C114.54 138.41, 134.67 115.25, 161.98 83.83 M128.79 146.4 C135.37 138.82, 141.96 131.24, 153.72 117.72 M128.79 146.4 C138.42 135.32, 148.06 124.23, 153.72 117.72" stroke="#e9ecef" stroke-width="2" fill="none"></path><path d="M161.8 80.9 C161.8 83.72, 161.65 86.55, 161.36 89.36 C161.07 92.16, 160.62 94.96, 160.04 97.72 C159.45 100.48, 158.71 103.22, 157.84 105.9 C156.97 108.58, 155.96 111.23, 154.81 113.81 C153.66 116.38, 152.37 118.91, 150.96 121.35 C149.56 123.79, 148.01 126.17, 146.35 128.45 C144.7 130.73, 142.91 132.94, 141.02 135.04 C139.14 137.13, 137.13 139.14, 135.04 141.02 C132.94 142.91, 130.73 144.7, 128.45 146.35 C126.17 148.01, 123.79 149.56, 121.35 150.96 C118.91 152.37, 116.38 153.66, 113.81 154.81 C111.23 155.96, 108.58 156.97, 105.9 157.84 C103.22 158.71, 100.48 159.45, 97.72 160.04 C94.96 160.62, 92.16 161.07, 89.36 161.36 C86.55 161.65, 83.72 161.8, 80.9 161.8 C78.08 161.8, 75.25 161.65, 72.45 161.36 C69.64 161.07, 66.84 160.62, 64.08 160.04 C61.32 159.45, 58.58 158.71, 55.9 157.84 C53.22 156.97, 50.57 155.96, 48 154.81 C45.42 153.66, 42.89 152.37, 40.45 150.96 C38.01 149.56, 35.63 148.01, 33.35 146.35 C31.07 144.7, 28.86 142.91, 26.77 141.02 C24.67 139.14, 22.67 137.13, 20.78 135.04 C18.89 132.94, 17.11 130.73, 15.45 128.45 C13.79 126.17, 12.25 123.79, 10.84 121.35 C9.43 118.91, 8.14 116.38, 6.99 113.81 C5.85 111.23, 4.83 108.58, 3.96 105.9 C3.09 103.22, 2.35 100.48, 1.77 97.72 C1.18 94.96, 0.74 92.16, 0.44 89.36 C0.15 86.55, 0 83.72, 0 80.9 C0 78.08, 0.15 75.25, 0.44 72.45 C0.74 69.64, 1.18 66.84, 1.77 64.08 C2.35 61.32, 3.09 58.58, 3.96 55.9 C4.83 53.22, 5.85 50.57, 6.99 48 C8.14 45.42, 9.43 42.89, 10.84 40.45 C12.25 38.01, 13.79 35.63, 15.45 33.35 C17.11 31.07, 18.89 28.86, 20.78 26.77 C22.67 24.67, 24.67 22.67, 26.77 20.78 C28.86 18.89, 31.07 17.11, 33.35 15.45 C35.63 13.79, 38.01 12.25, 40.45 10.84 C42.89 9.43, 45.42 8.14, 48 6.99 C50.57 5.85, 53.22 4.83, 55.9 3.96 C58.58 3.09, 61.32 2.35, 64.08 1.77 C66.84 1.18, 69.64 0.74, 72.45 0.44 C75.25 0.15, 78.08 0, 80.9 0 C83.72 0, 86.55 0.15, 89.36 0.44 C92.16 0.74, 94.96 1.18, 97.72 1.77 C100.48 2.35, 103.22 3.09, 105.9 3.96 C108.58 4.83, 111.23 5.85, 113.81 6.99 C116.38 8.14, 118.91 9.43, 121.35 10.84 C123.79 12.25, 126.17 13.79, 128.45 15.45 C130.73 17.11, 132.94 18.89, 135.04 20.78 C137.13 22.67, 139.14 24.67, 141.02 26.77 C142.91 28.86, 144.7 31.07, 146.35 33.35 C148.01 35.63, 149.56 38.01, 150.96 40.45 C152.37 42.89, 153.66 45.42, 154.81 48 C155.96 50.57, 156.97 53.22, 157.84 55.9 C158.71 58.58, 159.45 61.32, 160.04 64.08 C160.62 66.84, 161.07 69.64, 161.36 72.45 C161.65 75.25, 161.73 79.49, 161.8 80.9 C161.88 82.31, 161.88 79.49, 161.8 80.9" stroke="#343a40" stroke-width="4.5" fill="none" stroke-dasharray="8 12"></path></g><g stroke-linecap="round" transform="translate(180.46133683419612 282.9618452884797) rotate(0 80.90164730399192 80.90164730399283)"><path d="M20.5 27.09 C20.5 27.09, 20.5 27.09, 20.5 27.09 M20.5 27.09 C20.5 27.09, 20.5 27.09, 20.5 27.09 M0.43 74.57 C16.2 56.43, 31.96 38.29, 63.41 2.12 M0.43 74.57 C19.42 52.72, 38.41 30.87, 63.41 2.12 M2 97.14 C29.49 65.52, 56.98 33.9, 85.98 0.54 M2 97.14 C32.01 62.63, 62.01 28.11, 85.98 0.54 M7.52 115.19 C36.54 81.8, 65.56 48.42, 104.62 3.49 M7.52 115.19 C42.38 75.09, 77.23 34.99, 104.62 3.49 M16.31 129.46 C55.26 84.66, 94.2 39.85, 119.97 10.21 M16.31 129.46 C55.74 84.11, 95.16 38.76, 119.97 10.21 M27.08 141.46 C67.09 95.44, 107.1 49.41, 133.36 19.2 M27.08 141.46 C59.89 103.72, 92.7 65.97, 133.36 19.2 M40.46 150.45 C75.09 110.62, 109.72 70.78, 144.12 31.21 M40.46 150.45 C75.64 109.98, 110.82 69.52, 144.12 31.21 M55.16 157.93 C84.88 123.75, 114.59 89.57, 153.57 44.72 M55.16 157.93 C81.61 127.51, 108.05 97.09, 153.57 44.72 M73.14 161.63 C104.34 125.75, 135.53 89.86, 159.74 62.01 M73.14 161.63 C106.77 122.95, 140.4 84.27, 159.74 62.01 M94.4 161.57 C109.42 144.3, 124.43 127.03, 161.98 83.83 M94.4 161.57 C119.99 132.13, 145.58 102.69, 161.98 83.83 M128.79 146.4 C134.77 139.51, 140.76 132.63, 153.72 117.72 M128.79 146.4 C133.84 140.58, 138.9 134.77, 153.72 117.72" stroke="#ebfbee" stroke-width="2" fill="none"></path><path d="M161.8 80.9 C161.8 83.72, 161.65 86.55, 161.36 89.36 C161.07 92.16, 160.62 94.96, 160.04 97.72 C159.45 100.48, 158.71 103.22, 157.84 105.9 C156.97 108.58, 155.96 111.23, 154.81 113.81 C153.66 116.38, 152.37 118.91, 150.96 121.35 C149.56 123.79, 148.01 126.17, 146.35 128.45 C144.7 130.73, 142.91 132.94, 141.02 135.04 C139.14 137.13, 137.13 139.14, 135.04 141.02 C132.94 142.91, 130.73 144.7, 128.45 146.35 C126.17 148.01, 123.79 149.56, 121.35 150.96 C118.91 152.37, 116.38 153.66, 113.81 154.81 C111.23 155.96, 108.58 156.97, 105.9 157.84 C103.22 158.71, 100.48 159.45, 97.72 160.04 C94.96 160.62, 92.16 161.07, 89.36 161.36 C86.55 161.65, 83.72 161.8, 80.9 161.8 C78.08 161.8, 75.25 161.65, 72.45 161.36 C69.64 161.07, 66.84 160.62, 64.08 160.04 C61.32 159.45, 58.58 158.71, 55.9 157.84 C53.22 156.97, 50.57 155.96, 48 154.81 C45.42 153.66, 42.89 152.37, 40.45 150.96 C38.01 149.56, 35.63 148.01, 33.35 146.35 C31.07 144.7, 28.86 142.91, 26.77 141.02 C24.67 139.14, 22.67 137.13, 20.78 135.04 C18.89 132.94, 17.11 130.73, 15.45 128.45 C13.79 126.17, 12.25 123.79, 10.84 121.35 C9.43 118.91, 8.14 116.38, 6.99 113.81 C5.85 111.23, 4.83 108.58, 3.96 105.9 C3.09 103.22, 2.35 100.48, 1.77 97.72 C1.18 94.96, 0.74 92.16, 0.44 89.36 C0.15 86.55, 0 83.72, 0 80.9 C0 78.08, 0.15 75.25, 0.44 72.45 C0.74 69.64, 1.18 66.84, 1.77 64.08 C2.35 61.32, 3.09 58.58, 3.96 55.9 C4.83 53.22, 5.85 50.57, 6.99 48 C8.14 45.42, 9.43 42.89, 10.84 40.45 C12.25 38.01, 13.79 35.63, 15.45 33.35 C17.11 31.07, 18.89 28.86, 20.78 26.77 C22.67 24.67, 24.67 22.67, 26.77 20.78 C28.86 18.89, 31.07 17.11, 33.35 15.45 C35.63 13.79, 38.01 12.25, 40.45 10.84 C42.89 9.43, 45.42 8.14, 48 6.99 C50.57 5.85, 53.22 4.83, 55.9 3.96 C58.58 3.09, 61.32 2.35, 64.08 1.77 C66.84 1.18, 69.64 0.74, 72.45 0.44 C75.25 0.15, 78.08 0, 80.9 0 C83.72 0, 86.55 0.15, 89.36 0.44 C92.16 0.74, 94.96 1.18, 97.72 1.77 C100.48 2.35, 103.22 3.09, 105.9 3.96 C108.58 4.83, 111.23 5.85, 113.81 6.99 C116.38 8.14, 118.91 9.43, 121.35 10.84 C123.79 12.25, 126.17 13.79, 128.45 15.45 C130.73 17.11, 132.94 18.89, 135.04 20.78 C137.13 22.67, 139.14 24.67, 141.02 26.77 C142.91 28.86, 144.7 31.07, 146.35 33.35 C148.01 35.63, 149.56 38.01, 150.96 40.45 C152.37 42.89, 153.66 45.42, 154.81 48 C155.96 50.57, 156.97 53.22, 157.84 55.9 C158.71 58.58, 159.45 61.32, 160.04 64.08 C160.62 66.84, 161.07 69.64, 161.36 72.45 C161.65 75.25, 161.73 79.49, 161.8 80.9 C161.88 82.31, 161.88 79.49, 161.8 80.9" stroke="#2f9e44" stroke-width="4" fill="none"></path></g><g transform="translate(205.657005744637 55.90164730399283) rotate(0 57.421875 33.59999999999991)"><text x="57.421875" y="0" font-family="Cascadia, Segoe UI Emoji" font-size="28px" fill="#343a40" text-anchor="middle" style="white-space: pre;" direction="ltr" dominant-baseline="text-before-edge">Nessuna</text><text x="57.421875" y="33.6" font-family="Cascadia, Segoe UI Emoji" font-size="28px" fill="#343a40" text-anchor="middle" style="white-space: pre;" direction="ltr" dominant-baseline="text-before-edge">Nota</text></g><g transform="translate(207.77100415772293 346.36349259247345) rotate(0 57.421875 16.799999999999955)"><text x="57.421875" y="0" font-family="Cascadia, Segoe UI Emoji" font-size="28px" fill="#2f9e44" text-anchor="middle" style="white-space: pre;" direction="ltr" dominant-baseline="text-before-edge">Nota: A</text></g><g stroke-linecap="round"><g transform="translate(260.1008554053187 277.2195036670323) rotate(0 -2.3949542082846165e-7 -50.21696805334227)"><path d="M0 0 C0 -32.3, 0 -64.61, 0 -100.43 M0 0 C0 -22.11, 0 -44.21, 0 -100.43" stroke="#2f9e44" stroke-width="4" fill="none"></path></g><g transform="translate(260.1008554053187 277.2195036670323) rotate(0 -2.3949542082846165e-7 -50.21696805334227)"><path d="M0 0 L-6.34 -13.59 L6.34 -13.59 L0 0" stroke="none" stroke-width="0" fill="#2f9e44" fill-rule="evenodd"></path><path d="M0 0 C-2.04 -4.37, -4.08 -8.75, -6.34 -13.59 M0 0 C-1.4 -2.99, -2.79 -5.98, -6.34 -13.59 M-6.34 -13.59 C-3.41 -13.59, -0.49 -13.59, 6.34 -13.59 M-6.34 -13.59 C-2.48 -13.59, 1.38 -13.59, 6.34 -13.59 M6.34 -13.59 C4.25 -9.12, 2.17 -4.65, 0 0 M6.34 -13.59 C4.08 -8.74, 1.81 -3.89, 0 0 M0 0 C0 0, 0 0, 0 0 M0 0 C0 0, 0 0, 0 0" stroke="#2f9e44" stroke-width="4" fill="none"></path></g></g><mask></mask><g transform="translate(10 335.44320811706075) rotate(0 52.734375 24)"><text x="52.734375" y="0" font-family="Cascadia, Segoe UI Emoji" font-size="20px" fill="#f08c00" text-anchor="middle" style="white-space: pre;" direction="ltr" dominant-baseline="text-before-edge">Ricevo: A</text><text x="52.734375" y="24" font-family="Cascadia, Segoe UI Emoji" font-size="20px" fill="#f08c00" text-anchor="middle" style="white-space: pre;" direction="ltr" dominant-baseline="text-before-edge">Durata+=1</text></g><g transform="translate(273.58652236909256 180.16748916256256) rotate(0 52.734375 36)"><text x="0" y="0" font-family="Cascadia, Segoe UI Emoji" font-size="20px" fill="#2f9e44" text-anchor="start" style="white-space: pre;" direction="ltr" dominant-baseline="text-before-edge">Ricevo: A</text><text x="0" y="24" font-family="Cascadia, Segoe UI Emoji" font-size="20px" fill="#2f9e44" text-anchor="start" style="white-space: pre;" direction="ltr" dominant-baseline="text-before-edge">Nota=A</text><text x="0" y="48" font-family="Cascadia, Segoe UI Emoji" font-size="20px" fill="#2f9e44" text-anchor="start" style="white-space: pre;" direction="ltr" dominant-baseline="text-before-edge">Durata=1</text></g><g transform="translate(400.39663559284963 321.72325493948165) rotate(0 52.734375 48)"><text x="52.734375" y="0" font-family="Cascadia, Segoe UI Emoji" font-size="20px" fill="#e8590c" text-anchor="middle" style="white-space: pre;" direction="ltr" dominant-baseline="text-before-edge">Ricevo: B</text><text x="52.734375" y="24" font-family="Cascadia, Segoe UI Emoji" font-size="20px" fill="#e8590c" text-anchor="middle" style="white-space: pre;" direction="ltr" dominant-baseline="text-before-edge">Salvo A</text><text x="52.734375" y="48" font-family="Cascadia, Segoe UI Emoji" font-size="20px" fill="#e8590c" text-anchor="middle" style="white-space: pre;" direction="ltr" dominant-baseline="text-before-edge">Nota=B</text><text x="52.734375" y="72" font-family="Cascadia, Segoe UI Emoji" font-size="20px" fill="#e8590c" text-anchor="middle" style="white-space: pre;" direction="ltr" dominant-baseline="text-before-edge">Durata=1</text></g><g transform="translate(363.49298304197873 77.50164696163665) rotate(0 46.875 12)"><text x="0" y="0" font-family="Cascadia, Segoe UI Emoji" font-size="20px" fill="#343a40" text-anchor="start" style="white-space: pre;" direction="ltr" dominant-baseline="text-before-edge">Durata=0</text></g><g stroke-linecap="round"><g transform="translate(396.6993154328011 375.41179831690897) rotate(0 -20.644772397296038 0)"><path d="M0 0 C-6.88 0, -34.41 0, -41.29 0" stroke="#e8590c" stroke-width="2.5" fill="none" stroke-dasharray="8 10"></path></g><g transform="translate(396.6993154328011 375.41179831690897) rotate(0 -20.644772397296038 0)"><path d="M0 0 L-13.59 6.34 L-13.59 -6.34 L0 0" stroke="none" stroke-width="0" fill="#e8590c" fill-rule="evenodd"></path><path d="M0 0 C-5.29 2.47, -10.58 4.93, -13.59 6.34 M-13.59 6.34 C-13.59 2.88, -13.59 -0.58, -13.59 -6.34 M-13.59 -6.34 C-9.38 -4.38, -5.17 -2.41, 0 0 M0 0 C0 0, 0 0, 0 0" stroke="#e8590c" stroke-width="2.5" fill="none"></path></g></g><mask></mask><g stroke-linecap="round"><g transform="translate(169.73833516883315 369.21496782466556) rotate(0 -23.467029331455706 0)"><path d="M0 0 C-7.82 0, -39.11 0, -46.93 0" stroke="#f08c00" stroke-width="2.5" fill="none" stroke-dasharray="8 10"></path></g><g transform="translate(169.73833516883315 369.21496782466556) rotate(0 -23.467029331455706 0)"><path d="M-46.93 0 L-33.34 -6.34 L-33.34 6.34 L-46.93 0" stroke="none" stroke-width="0" fill="#f08c00" fill-rule="evenodd"></path><path d="M-46.93 0 C-42.83 -1.91, -38.74 -3.82, -33.34 -6.34 M-33.34 -6.34 C-33.34 -2.19, -33.34 1.96, -33.34 6.34 M-33.34 6.34 C-38.2 4.07, -43.05 1.81, -46.93 0 M-46.93 0 C-46.93 0, -46.93 0, -46.93 0" stroke="#f08c00" stroke-width="2.5" fill="none"></path></g></g><mask></mask><g stroke-linecap="round"><g transform="translate(350.0302466623616 355.0549593292808) rotate(0 23.33453438521974 0)"><path d="M0 0 C7.78 0, 38.89 0, 46.67 0" stroke="#e8590c" stroke-width="2.5" fill="none" stroke-dasharray="8 10"></path></g><g transform="translate(350.0302466623616 355.0549593292808) rotate(0 23.33453438521974 0)"><path d="M0 0 L13.59 -6.34 L13.59 6.34 L0 0" stroke="none" stroke-width="0" fill="#e8590c" fill-rule="evenodd"></path><path d="M0 0 C3.64 -1.7, 7.29 -3.4, 13.59 -6.34 M13.59 -6.34 C13.59 -2.89, 13.59 0.56, 13.59 6.34 M13.59 6.34 C9.16 4.27, 4.73 2.21, 0 0 M0 0 C0 0, 0 0, 0 0" stroke="#e8590c" stroke-width="2.5" fill="none"></path></g></g><mask></mask><g stroke-linecap="round"><g transform="translate(123.2967365478471 348.8581288370374) rotate(0 23.22079931049302 0)"><path d="M0 0 C7.74 0, 38.7 0, 46.44 0" stroke="#f08c00" stroke-width="2.5" fill="none" stroke-dasharray="8 10"></path></g><g transform="translate(123.2967365478471 348.8581288370374) rotate(0 23.22079931049302 0)"><path d="M46.44 0 L32.85 6.34 L32.85 -6.34 L46.44 0" stroke="none" stroke-width="0" fill="#f08c00" fill-rule="evenodd"></path><path d="M46.44 0 C41.98 2.08, 37.52 4.16, 32.85 6.34 M32.85 6.34 C32.85 3.35, 32.85 0.35, 32.85 -6.34 M32.85 -6.34 C37.88 -3.99, 42.92 -1.64, 46.44 0 M46.44 0 C46.44 0, 46.44 0, 46.44 0" stroke="#f08c00" stroke-width="2.5" fill="none"></path></g></g><mask></mask></svg>