<svg version="1.1" xmlns="http://www.w3.org/2000/svg" viewBox="0 0 708.2155418006951 909.6339205954105" width="708.2155418006951" height="909.6339205954105">
  <!-- svg-source:excalidraw -->
  
  <defs>
    <style class="style-fonts">
      @font-face {
        font-family: "Virgil";
        src: url("https://excalidraw.com/Virgil.woff2");
      }
      @font-face {
        font-family: "Cascadia";
        src: url("https://excalidraw.com/Cascadia.woff2");
      }
      @font-face {
        font-family: "Assistant";
        src: url("https://excalidraw.com/Assistant-Regular.woff2");
      }
    </style>
    
  </defs>
  <g stroke-linecap="round" transform="translate(180.46133683419612 33.6059580383635) rotate(0 80.90164730399192 80.90164730399283)"><path d="M20.5 27.09 C20.5 27.09, 20.5 27.09, 20.5 27.09 M20.5 27.09 C20.5 27.09, 20.5 27.09, 20.5 27.09 M0.43 74.57 C21.52 50.31, 42.61 26.04, 63.41 2.12 M0.43 74.57 C17.94 54.42, 35.46 34.27, 63.41 2.12 M2 97.14 C30.89 63.91, 59.78 30.68, 85.98 0.54 M2 97.14 C22.79 73.24, 43.57 49.33, 85.98 0.54 M7.52 115.19 C40.56 77.18, 73.6 39.17, 104.62 3.49 M7.52 115.19 C37.64 80.53, 67.77 45.88, 104.62 3.49 M16.31 129.46 C41.53 100.44, 66.75 71.43, 119.97 10.21 M16.31 129.46 C53.1 87.14, 89.88 44.83, 119.97 10.21 M27.08 141.46 C59.52 104.15, 91.95 66.83, 133.36 19.2 M27.08 141.46 C55.26 109.05, 83.44 76.63, 133.36 19.2 M40.46 150.45 C61.66 126.07, 82.86 101.68, 144.12 31.21 M40.46 150.45 C74.34 111.48, 108.22 72.51, 144.12 31.21 M55.16 157.93 C88.6 119.46, 122.05 80.99, 153.57 44.72 M55.16 157.93 C78.14 131.5, 101.12 105.06, 153.57 44.72 M73.14 161.63 C101.17 129.39, 129.2 97.15, 159.74 62.01 M73.14 161.63 C98.53 132.43, 123.91 103.23, 159.74 62.01 M94.4 161.57 C113.06 140.11, 131.71 118.65, 161.98 83.83 M94.4 161.57 C110.22 143.37, 126.04 125.17, 161.98 83.83 M128.79 146.4 C136.73 137.26, 144.67 128.13, 153.72 117.72 M128.79 146.4 C134.06 140.33, 139.34 134.26, 153.72 117.72" stroke="#e9ecef" stroke-width="2" fill="none"></path><path d="M161.8 80.9 C161.8 83.72, 161.65 86.55, 161.36 89.36 C161.07 92.16, 160.62 94.96, 160.04 97.72 C159.45 100.48, 158.71 103.22, 157.84 105.9 C156.97 108.58, 155.96 111.23, 154.81 113.81 C153.66 116.38, 152.37 118.91, 150.96 121.35 C149.56 123.79, 148.01 126.17, 146.35 128.45 C144.7 130.73, 142.91 132.94, 141.02 135.04 C139.14 137.13, 137.13 139.14, 135.04 141.02 C132.94 142.91, 130.73 144.7, 128.45 146.35 C126.17 148.01, 123.79 149.56, 121.35 150.96 C118.91 152.37, 116.38 153.66, 113.81 154.81 C111.23 155.96, 108.58 156.97, 105.9 157.84 C103.22 158.71, 100.48 159.45, 97.72 160.04 C94.96 160.62, 92.16 161.07, 89.36 161.36 C86.55 161.65, 83.72 161.8, 80.9 161.8 C78.08 161.8, 75.25 161.65, 72.45 161.36 C69.64 161.07, 66.84 160.62, 64.08 160.04 C61.32 159.45, 58.58 158.71, 55.9 157.84 C53.22 156.97, 50.57 155.96, 48 154.81 C45.42 153.66, 42.89 152.37, 40.45 150.96 C38.01 149.56, 35.63 148.01, 33.35 146.35 C31.07 144.7, 28.86 142.91, 26.77 141.02 C24.67 139.14, 22.67 137.13, 20.78 135.04 C18.89 132.94, 17.11 130.73, 15.45 128.45 C13.79 126.17, 12.25 123.79, 10.84 121.35 C9.43 118.91, 8.14 116.38, 6.99 113.81 C5.85 111.23, 4.83 108.58, 3.96 105.9 C3.09 103.22, 2.35 100.48, 1.77 97.72 C1.18 94.96, 0.74 92.16, 0.44 89.36 C0.15 86.55, 0 83.72, 0 80.9 C0 78.08, 0.15 75.25, 0.44 72.45 C0.74 69.64, 1.18 66.84, 1.77 64.08 C2.35 61.32, 3.09 58.58, 3.96 55.9 C4.83 53.22, 5.85 50.57, 6.99 48 C8.14 45.42, 9.43 42.89, 10.84 40.45 C12.25 38.01, 13.79 35.63, 15.45 33.35 C17.11 31.07, 18.89 28.86, 20.78 26.77 C22.67 24.67, 24.67 22.67, 26.77 20.78 C28.86 18.89, 31.07 17.11, 33.35 15.45 C35.63 13.79, 38.01 12.25, 40.45 10.84 C42.89 9.43, 45.42 8.14, 48 6.99 C50.57 5.85, 53.22 4.83, 55.9 3.96 C58.58 3.09, 61.32 2.35, 64.08 1.77 C66.84 1.18, 69.64 0.74, 72.45 0.44 C75.25 0.15, 78.08 0, 80.9 0 C83.72 0, 86.55 0.15, 89.36 0.44 C92.16 0.74, 94.96 1.18, 97.72 1.77 C100.48 2.35, 103.22 3.09, 105.9 3.96 C108.58 4.83, 111.23 5.85, 113.81 6.99 C116.38 8.14, 118.91 9.43, 121.35 10.84 C123.79 12.25, 126.17 13.79, 128.45 15.45 C130.73 17.11, 132.94 18.89, 135.04 20.78 C137.13 22.67, 139.14 24.67, 141.02 26.77 C142.91 28.86, 144.7 31.07, 146.35 33.35 C148.01 35.63, 149.56 38.01, 150.96 40.45 C152.37 42.89, 153.66 45.42, 154.81 48 C155.96 50.57, 156.97 53.22, 157.84 55.9 C158.71 58.58, 159.45 61.32, 160.04 64.08 C160.62 66.84, 161.07 69.64, 161.36 72.45 C161.65 75.25, 161.73 79.49, 161.8 80.9 C161.88 82.31, 161.88 79.49, 161.8 80.9" stroke="#343a40" stroke-width="4.5" fill="none" stroke-dasharray="8 12"></path></g><g stroke-linecap="round" transform="translate(180.46133683419612 306.5678033268432) rotate(0 80.90164730399192 80.90164730399283)"><path d="M20.5 27.09 C20.5 27.09, 20.5 27.09, 20.5 27.09 M20.5 27.09 C20.5 27.09, 20.5 27.09, 20.5 27.09 M0.43 74.57 C23.29 48.27, 46.15 21.97, 63.41 2.12 M0.43 74.57 C19.22 52.95, 38.02 31.33, 63.41 2.12 M2 97.14 C34.97 59.22, 67.94 21.29, 85.98 0.54 M2 97.14 C32.11 62.51, 62.21 27.88, 85.98 0.54 M7.52 115.19 C35.91 82.52, 64.31 49.86, 104.62 3.49 M7.52 115.19 C43.17 74.18, 78.81 33.17, 104.62 3.49 M16.31 129.46 C39.1 103.25, 61.88 77.04, 119.97 10.21 M16.31 129.46 C49.68 91.08, 83.04 52.69, 119.97 10.21 M27.08 141.46 C50.54 114.48, 73.99 87.49, 133.36 19.2 M27.08 141.46 C65.29 97.5, 103.51 53.54, 133.36 19.2 M40.46 150.45 C74.04 111.82, 107.62 73.2, 144.12 31.21 M40.46 150.45 C78.04 107.22, 115.62 64, 144.12 31.21 M55.16 157.93 C78.24 131.38, 101.32 104.83, 153.57 44.72 M55.16 157.93 C91.07 116.63, 126.97 75.33, 153.57 44.72 M73.14 161.63 C92.86 138.96, 112.57 116.28, 159.74 62.01 M73.14 161.63 C104.2 125.91, 135.25 90.19, 159.74 62.01 M94.4 161.57 C110.78 142.73, 127.16 123.88, 161.98 83.83 M94.4 161.57 C114.69 138.23, 134.97 114.9, 161.98 83.83 M128.79 146.4 C138.14 135.64, 147.5 124.87, 153.72 117.72 M128.79 146.4 C136.67 137.33, 144.56 128.25, 153.72 117.72" stroke="#ebfbee" stroke-width="2" fill="none"></path><path d="M161.8 80.9 C161.8 83.72, 161.65 86.55, 161.36 89.36 C161.07 92.16, 160.62 94.96, 160.04 97.72 C159.45 100.48, 158.71 103.22, 157.84 105.9 C156.97 108.58, 155.96 111.23, 154.81 113.81 C153.66 116.38, 152.37 118.91, 150.96 121.35 C149.56 123.79, 148.01 126.17, 146.35 128.45 C144.7 130.73, 142.91 132.94, 141.02 135.04 C139.14 137.13, 137.13 139.14, 135.04 141.02 C132.94 142.91, 130.73 144.7, 128.45 146.35 C126.17 148.01, 123.79 149.56, 121.35 150.96 C118.91 152.37, 116.38 153.66, 113.81 154.81 C111.23 155.96, 108.58 156.97, 105.9 157.84 C103.22 158.71, 100.48 159.45, 97.72 160.04 C94.96 160.62, 92.16 161.07, 89.36 161.36 C86.55 161.65, 83.72 161.8, 80.9 161.8 C78.08 161.8, 75.25 161.65, 72.45 161.36 C69.64 161.07, 66.84 160.62, 64.08 160.04 C61.32 159.45, 58.58 158.71, 55.9 157.84 C53.22 156.97, 50.57 155.96, 48 154.81 C45.42 153.66, 42.89 152.37, 40.45 150.96 C38.01 149.56, 35.63 148.01, 33.35 146.35 C31.07 144.7, 28.86 142.91, 26.77 141.02 C24.67 139.14, 22.67 137.13, 20.78 135.04 C18.89 132.94, 17.11 130.73, 15.45 128.45 C13.79 126.17, 12.25 123.79, 10.84 121.35 C9.43 118.91, 8.14 116.38, 6.99 113.81 C5.85 111.23, 4.83 108.58, 3.96 105.9 C3.09 103.22, 2.35 100.48, 1.77 97.72 C1.18 94.96, 0.74 92.16, 0.44 89.36 C0.15 86.55, 0 83.72, 0 80.9 C0 78.08, 0.15 75.25, 0.44 72.45 C0.74 69.64, 1.18 66.84, 1.77 64.08 C2.35 61.32, 3.09 58.58, 3.96 55.9 C4.83 53.22, 5.85 50.57, 6.99 48 C8.14 45.42, 9.43 42.89, 10.84 40.45 C12.25 38.01, 13.79 35.63, 15.45 33.35 C17.11 31.07, 18.89 28.86, 20.78 26.77 C22.67 24.67, 24.67 22.67, 26.77 20.78 C28.86 18.89, 31.07 17.11, 33.35 15.45 C35.63 13.79, 38.01 12.25, 40.45 10.84 C42.89 9.43, 45.42 8.14, 48 6.99 C50.57 5.85, 53.22 4.83, 55.9 3.96 C58.58 3.09, 61.32 2.35, 64.08 1.77 C66.84 1.18, 69.64 0.74, 72.45 0.44 C75.25 0.15, 78.08 0, 80.9 0 C83.72 0, 86.55 0.15, 89.36 0.44 C92.16 0.74, 94.96 1.18, 97.72 1.77 C100.48 2.35, 103.22 3.09, 105.9 3.96 C108.58 4.83, 111.23 5.85, 113.81 6.99 C116.38 8.14, 118.91 9.43, 121.35 10.84 C123.79 12.25, 126.17 13.79, 128.45 15.45 C130.73 17.11, 132.94 18.89, 135.04 20.78 C137.13 22.67, 139.14 24.67, 141.02 26.77 C142.91 28.86, 144.7 31.07, 146.35 33.35 C148.01 35.63, 149.56 38.01, 150.96 40.45 C152.37 42.89, 153.66 45.42, 154.81 48 C155.96 50.57, 156.97 53.22, 157.84 55.9 C158.71 58.58, 159.45 61.32, 160.04 64.08 C160.62 66.84, 161.07 69.64, 161.36 72.45 C161.65 75.25, 161.73 79.49, 161.8 80.9 C161.88 82.31, 161.88 79.49, 161.8 80.9" stroke="#2f9e44" stroke-width="4" fill="none"></path></g><g stroke-linecap="round" transform="translate(182.49100657190138 667.8208605632826) rotate(0 80.90164730399192 80.90164730399283)"><path d="M20.5 27.09 C20.5 27.09, 20.5 27.09, 20.5 27.09 M20.5 27.09 C20.5 27.09, 20.5 27.09, 20.5 27.09 M0.43 74.57 C19.62 52.49, 38.81 30.42, 63.41 2.12 M0.43 74.57 C23.99 47.46, 47.55 20.36, 63.41 2.12 M2 97.14 C29.03 66.05, 56.06 34.96, 85.98 0.54 M2 97.14 C29.7 65.28, 57.4 33.42, 85.98 0.54 M7.52 115.19 C33.92 84.82, 60.31 54.46, 104.62 3.49 M7.52 115.19 C35.47 83.04, 63.41 50.89, 104.62 3.49 M16.31 129.46 C51.9 88.52, 87.49 47.58, 119.97 10.21 M16.31 129.46 C43.38 98.32, 70.45 67.18, 119.97 10.21 M27.08 141.46 C66.41 96.21, 105.75 50.96, 133.36 19.2 M27.08 141.46 C63.82 99.2, 100.56 56.93, 133.36 19.2 M40.46 150.45 C74.13 111.72, 107.8 72.99, 144.12 31.21 M40.46 150.45 C74.35 111.47, 108.23 72.49, 144.12 31.21 M55.16 157.93 C76.09 133.85, 97.02 109.78, 153.57 44.72 M55.16 157.93 C83.25 125.62, 111.33 93.32, 153.57 44.72 M73.14 161.63 C104.79 125.23, 136.43 88.83, 159.74 62.01 M73.14 161.63 C90.79 141.34, 108.43 121.04, 159.74 62.01 M94.4 161.57 C117.02 135.55, 139.64 109.53, 161.98 83.83 M94.4 161.57 C119.57 132.61, 144.74 103.66, 161.98 83.83 M128.79 146.4 C138.41 135.33, 148.04 124.25, 153.72 117.72 M128.79 146.4 C138.67 135.03, 148.55 123.67, 153.72 117.72" stroke="#e7f5ff" stroke-width="2" fill="none"></path><path d="M161.8 80.9 C161.8 83.72, 161.65 86.55, 161.36 89.36 C161.07 92.16, 160.62 94.96, 160.04 97.72 C159.45 100.48, 158.71 103.22, 157.84 105.9 C156.97 108.58, 155.96 111.23, 154.81 113.81 C153.66 116.38, 152.37 118.91, 150.96 121.35 C149.56 123.79, 148.01 126.17, 146.35 128.45 C144.7 130.73, 142.91 132.94, 141.02 135.04 C139.14 137.13, 137.13 139.14, 135.04 141.02 C132.94 142.91, 130.73 144.7, 128.45 146.35 C126.17 148.01, 123.79 149.56, 121.35 150.96 C118.91 152.37, 116.38 153.66, 113.81 154.81 C111.23 155.96, 108.58 156.97, 105.9 157.84 C103.22 158.71, 100.48 159.45, 97.72 160.04 C94.96 160.62, 92.16 161.07, 89.36 161.36 C86.55 161.65, 83.72 161.8, 80.9 161.8 C78.08 161.8, 75.25 161.65, 72.45 161.36 C69.64 161.07, 66.84 160.62, 64.08 160.04 C61.32 159.45, 58.58 158.71, 55.9 157.84 C53.22 156.97, 50.57 155.96, 48 154.81 C45.42 153.66, 42.89 152.37, 40.45 150.96 C38.01 149.56, 35.63 148.01, 33.35 146.35 C31.07 144.7, 28.86 142.91, 26.77 141.02 C24.67 139.14, 22.67 137.13, 20.78 135.04 C18.89 132.94, 17.11 130.73, 15.45 128.45 C13.79 126.17, 12.25 123.79, 10.84 121.35 C9.43 118.91, 8.14 116.38, 6.99 113.81 C5.85 111.23, 4.83 108.58, 3.96 105.9 C3.09 103.22, 2.35 100.48, 1.77 97.72 C1.18 94.96, 0.74 92.16, 0.44 89.36 C0.15 86.55, 0 83.72, 0 80.9 C0 78.08, 0.15 75.25, 0.44 72.45 C0.74 69.64, 1.18 66.84, 1.77 64.08 C2.35 61.32, 3.09 58.58, 3.96 55.9 C4.83 53.22, 5.85 50.57, 6.99 48 C8.14 45.42, 9.43 42.89, 10.84 40.45 C12.25 38.01, 13.79 35.63, 15.45 33.35 C17.11 31.07, 18.89 28.86, 20.78 26.77 C22.67 24.67, 24.67 22.67, 26.77 20.78 C28.86 18.89, 31.07 17.11, 33.35 15.45 C35.63 13.79, 38.01 12.25, 40.45 10.84 C42.89 9.43, 45.42 8.14, 48 6.99 C50.57 5.85, 53.22 4.83, 55.9 3.96 C58.58 3.09, 61.32 2.35, 64.08 1.77 C66.84 1.18, 69.64 0.74, 72.45 0.44 C75.25 0.15, 78.08 0, 80.9 0 C83.72 0, 86.55 0.15, 89.36 0.44 C92.16 0.74, 94.96 1.18, 97.72 1.77 C100.48 2.35, 103.22 3.09, 105.9 3.96 C108.58 4.83, 111.23 5.85, 113.81 6.99 C116.38 8.14, 118.91 9.43, 121.35 10.84 C123.79 12.25, 126.17 13.79, 128.45 15.45 C130.73 17.11, 132.94 18.89, 135.04 20.78 C137.13 22.67, 139.14 24.67, 141.02 26.77 C142.91 28.86, 144.7 31.07, 146.35 33.35 C148.01 35.63, 149.56 38.01, 150.96 40.45 C152.37 42.89, 153.66 45.42, 154.81 48 C155.96 50.57, 156.97 53.22, 157.84 55.9 C158.71 58.58, 159.45 61.32, 160.04 64.08 C160.62 66.84, 161.07 69.64, 161.36 72.45 C161.65 75.25, 161.73 79.49, 161.8 80.9 C161.88 82.31, 161.88 79.49, 161.8 80.9" stroke="#1971c2" stroke-width="4" fill="none"></path></g><g stroke-linecap="round" transform="translate(493.4454945409816 667.6659545275161) rotate(0 80.90164730399192 80.90164730399283)"><path d="M20.5 27.09 C20.5 27.09, 20.5 27.09, 20.5 27.09 M20.5 27.09 C20.5 27.09, 20.5 27.09, 20.5 27.09 M0.43 74.57 C21.25 50.62, 42.07 26.66, 63.41 2.12 M0.43 74.57 C22.23 49.49, 44.03 24.41, 63.41 2.12 M2 97.14 C20.33 76.06, 38.66 54.97, 85.98 0.54 M2 97.14 C34.2 60.1, 66.4 23.06, 85.98 0.54 M7.52 115.19 C40.25 77.54, 72.97 39.89, 104.62 3.49 M7.52 115.19 C38.51 79.54, 69.49 43.89, 104.62 3.49 M16.31 129.46 C47.5 93.59, 78.68 57.72, 119.97 10.21 M16.31 129.46 C46.16 95.12, 76.01 60.79, 119.97 10.21 M27.08 141.46 C61.6 101.75, 96.11 62.05, 133.36 19.2 M27.08 141.46 C53.79 110.74, 80.5 80.01, 133.36 19.2 M40.46 150.45 C73.56 112.37, 106.66 74.3, 144.12 31.21 M40.46 150.45 C61.58 126.17, 82.69 101.88, 144.12 31.21 M55.16 157.93 C92.92 114.5, 130.67 71.07, 153.57 44.72 M55.16 157.93 C92.43 115.06, 129.7 72.19, 153.57 44.72 M73.14 161.63 C99.08 131.79, 125.03 101.95, 159.74 62.01 M73.14 161.63 C95.28 136.17, 117.42 110.7, 159.74 62.01 M94.4 161.57 C109.63 144.05, 124.85 126.54, 161.98 83.83 M94.4 161.57 C119.1 133.16, 143.79 104.76, 161.98 83.83 M128.79 146.4 C138.49 135.24, 148.19 124.08, 153.72 117.72 M128.79 146.4 C136.19 137.88, 143.59 129.37, 153.72 117.72" stroke="#f8f0fc" stroke-width="2" fill="none"></path><path d="M161.8 80.9 C161.8 83.72, 161.65 86.55, 161.36 89.36 C161.07 92.16, 160.62 94.96, 160.04 97.72 C159.45 100.48, 158.71 103.22, 157.84 105.9 C156.97 108.58, 155.96 111.23, 154.81 113.81 C153.66 116.38, 152.37 118.91, 150.96 121.35 C149.56 123.79, 148.01 126.17, 146.35 128.45 C144.7 130.73, 142.91 132.94, 141.02 135.04 C139.14 137.13, 137.13 139.14, 135.04 141.02 C132.94 142.91, 130.73 144.7, 128.45 146.35 C126.17 148.01, 123.79 149.56, 121.35 150.96 C118.91 152.37, 116.38 153.66, 113.81 154.81 C111.23 155.96, 108.58 156.97, 105.9 157.84 C103.22 158.71, 100.48 159.45, 97.72 160.04 C94.96 160.62, 92.16 161.07, 89.36 161.36 C86.55 161.65, 83.72 161.8, 80.9 161.8 C78.08 161.8, 75.25 161.65, 72.45 161.36 C69.64 161.07, 66.84 160.62, 64.08 160.04 C61.32 159.45, 58.58 158.71, 55.9 157.84 C53.22 156.97, 50.57 155.96, 48 154.81 C45.42 153.66, 42.89 152.37, 40.45 150.96 C38.01 149.56, 35.63 148.01, 33.35 146.35 C31.07 144.7, 28.86 142.91, 26.77 141.02 C24.67 139.14, 22.67 137.13, 20.78 135.04 C18.89 132.94, 17.11 130.73, 15.45 128.45 C13.79 126.17, 12.25 123.79, 10.84 121.35 C9.43 118.91, 8.14 116.38, 6.99 113.81 C5.85 111.23, 4.83 108.58, 3.96 105.9 C3.09 103.22, 2.35 100.48, 1.77 97.72 C1.18 94.96, 0.74 92.16, 0.44 89.36 C0.15 86.55, 0 83.72, 0 80.9 C0 78.08, 0.15 75.25, 0.44 72.45 C0.74 69.64, 1.18 66.84, 1.77 64.08 C2.35 61.32, 3.09 58.58, 3.96 55.9 C4.83 53.22, 5.85 50.57, 6.99 48 C8.14 45.42, 9.43 42.89, 10.84 40.45 C12.25 38.01, 13.79 35.63, 15.45 33.35 C17.11 31.07, 18.89 28.86, 20.78 26.77 C22.67 24.67, 24.67 22.67, 26.77 20.78 C28.86 18.89, 31.07 17.11, 33.35 15.45 C35.63 13.79, 38.01 12.25, 40.45 10.84 C42.89 9.43, 45.42 8.14, 48 6.99 C50.57 5.85, 53.22 4.83, 55.9 3.96 C58.58 3.09, 61.32 2.35, 64.08 1.77 C66.84 1.18, 69.64 0.74, 72.45 0.44 C75.25 0.15, 78.08 0, 80.9 0 C83.72 0, 86.55 0.15, 89.36 0.44 C92.16 0.74, 94.96 1.18, 97.72 1.77 C100.48 2.35, 103.22 3.09, 105.9 3.96 C108.58 4.83, 111.23 5.85, 113.81 6.99 C116.38 8.14, 118.91 9.43, 121.35 10.84 C123.79 12.25, 126.17 13.79, 128.45 15.45 C130.73 17.11, 132.94 18.89, 135.04 20.78 C137.13 22.67, 139.14 24.67, 141.02 26.77 C142.91 28.86, 144.7 31.07, 146.35 33.35 C148.01 35.63, 149.56 38.01, 150.96 40.45 C152.37 42.89, 153.66 45.42, 154.81 48 C155.96 50.57, 156.97 53.22, 157.84 55.9 C158.71 58.58, 159.45 61.32, 160.04 64.08 C160.62 66.84, 161.07 69.64, 161.36 72.45 C161.65 75.25, 161.73 79.49, 161.8 80.9 C161.88 82.31, 161.88 79.49, 161.8 80.9" stroke="#9c36b5" stroke-width="4.5" fill="none" stroke-dasharray="1.5 10"></path></g><g transform="translate(205.657005744637 79.50760534235633) rotate(0 57.421875 33.59999999999991)"><text x="57.421875" y="0" font-family="Cascadia, Segoe UI Emoji" font-size="28px" fill="#343a40" text-anchor="middle" style="white-space: pre;" direction="ltr" dominant-baseline="text-before-edge">Nessuna</text><text x="57.421875" y="33.6" font-family="Cascadia, Segoe UI Emoji" font-size="28px" fill="#343a40" text-anchor="middle" style="white-space: pre;" direction="ltr" dominant-baseline="text-before-edge">Nota</text></g><g transform="translate(207.77100415772293 369.96945063083695) rotate(0 57.421875 16.799999999999955)"><text x="57.421875" y="0" font-family="Cascadia, Segoe UI Emoji" font-size="28px" fill="#2f9e44" text-anchor="middle" style="white-space: pre;" direction="ltr" dominant-baseline="text-before-edge">Nota: A</text></g><g transform="translate(201.05067389544274 731.2225078672745) rotate(0 65.625 16.799999999999955)"><text x="65.625" y="0" font-family="Cascadia, Segoe UI Emoji" font-size="28px" fill="#1971c2" text-anchor="middle" style="white-space: pre;" direction="ltr" dominant-baseline="text-before-edge">Nota: A+</text></g><g transform="translate(514.2311674187076 731.0676018315089) rotate(0 65.625 16.799999999999955)"><text x="65.625" y="0" font-family="Cascadia, Segoe UI Emoji" font-size="28px" fill="#9c36b5" text-anchor="middle" style="white-space: pre;" direction="ltr" dominant-baseline="text-before-edge">Nota: A?</text></g><g stroke-linecap="round"><g transform="translate(260.1008554053187 300.8254617053958) rotate(0 -2.3949542082846165e-7 -50.21696805334227)"><path d="M0 0 C0 -27.1, 0 -54.2, 0 -100.43 M0 0 C0 -38.19, 0 -76.38, 0 -100.43" stroke="#2f9e44" stroke-width="4" fill="none"></path></g><g transform="translate(260.1008554053187 300.8254617053958) rotate(0 -2.3949542082846165e-7 -50.21696805334227)"><path d="M0 0 L-6.34 -13.59 L6.34 -13.59 L0 0" stroke="none" stroke-width="0" fill="#2f9e44" fill-rule="evenodd"></path><path d="M0 0 C-1.71 -3.67, -3.42 -7.34, -6.34 -13.59 M0 0 C-2.41 -5.17, -4.82 -10.34, -6.34 -13.59 M-6.34 -13.59 C-3.76 -13.59, -1.18 -13.59, 6.34 -13.59 M-6.34 -13.59 C-2.68 -13.59, 0.99 -13.59, 6.34 -13.59 M6.34 -13.59 C4.03 -8.64, 1.72 -3.69, 0 0 M6.34 -13.59 C3.86 -8.28, 1.38 -2.97, 0 0 M0 0 C0 0, 0 0, 0 0 M0 0 C0 0, 0 0, 0 0" stroke="#2f9e44" stroke-width="4" fill="none"></path></g></g><mask></mask><g stroke-linecap="round"><g transform="translate(271.36225701423245 663.0016922307586) rotate(0 0 -93.15283748292632)"><path d="M0 0 C0 -62.4, 0 -124.79, 0 -186.31 M0 0 C0 -51.82, 0 -103.63, 0 -186.31" stroke="#1971c2" stroke-width="4" fill="none"></path></g><g transform="translate(271.36225701423245 663.0016922307586) rotate(0 0 -93.15283748292632)"><path d="M0 0 L-6.34 -13.59 L6.34 -13.59 L0 0" stroke="none" stroke-width="0" fill="#1971c2" fill-rule="evenodd"></path><path d="M0 0 C-2.12 -4.55, -4.25 -9.11, -6.34 -13.59 M0 0 C-1.76 -3.78, -3.53 -7.56, -6.34 -13.59 M-6.34 -13.59 C-1.98 -13.59, 2.38 -13.59, 6.34 -13.59 M-6.34 -13.59 C-3.2 -13.59, -0.06 -13.59, 6.34 -13.59 M6.34 -13.59 C4.18 -8.97, 2.03 -4.34, 0 0 M6.34 -13.59 C4.37 -9.38, 2.41 -5.16, 0 0 M0 0 C0 0, 0 0, 0 0 M0 0 C0 0, 0 0, 0 0" stroke="#1971c2" stroke-width="4" fill="none"></path></g></g><mask></mask><g transform="translate(10 359.04916615542425) rotate(0 52.734375 24)"><text x="52.734375" y="0" font-family="Cascadia, Segoe UI Emoji" font-size="20px" fill="#f08c00" text-anchor="middle" style="white-space: pre;" direction="ltr" dominant-baseline="text-before-edge">Ricevo: A</text><text x="52.734375" y="24" font-family="Cascadia, Segoe UI Emoji" font-size="20px" fill="#f08c00" text-anchor="middle" style="white-space: pre;" direction="ltr" dominant-baseline="text-before-edge">Durata+=1</text></g><g transform="translate(273.58652236909256 203.77344720092606) rotate(0 52.734375 36)"><text x="0" y="0" font-family="Cascadia, Segoe UI Emoji" font-size="20px" fill="#2f9e44" text-anchor="start" style="white-space: pre;" direction="ltr" dominant-baseline="text-before-edge">Ricevo: A</text><text x="0" y="24" font-family="Cascadia, Segoe UI Emoji" font-size="20px" fill="#2f9e44" text-anchor="start" style="white-space: pre;" direction="ltr" dominant-baseline="text-before-edge">Nota=A</text><text x="0" y="48" font-family="Cascadia, Segoe UI Emoji" font-size="20px" fill="#2f9e44" text-anchor="start" style="white-space: pre;" direction="ltr" dominant-baseline="text-before-edge">Durata=1</text></g><g transform="translate(282.9839335364304 521.848854000637) rotate(0 64.453125 48)"><text x="0" y="0" font-family="Cascadia, Segoe UI Emoji" font-size="20px" fill="#1971c2" text-anchor="start" style="white-space: pre;" direction="ltr" dominant-baseline="text-before-edge">Ricevo: b/#</text><text x="0" y="24" font-family="Cascadia, Segoe UI Emoji" font-size="20px" fill="#1971c2" text-anchor="start" style="white-space: pre;" direction="ltr" dominant-baseline="text-before-edge">Salvo A</text><text x="0" y="48" font-family="Cascadia, Segoe UI Emoji" font-size="20px" fill="#1971c2" text-anchor="start" style="white-space: pre;" direction="ltr" dominant-baseline="text-before-edge">Alter=b/#</text><text x="0" y="72" font-family="Cascadia, Segoe UI Emoji" font-size="20px" fill="#1971c2" text-anchor="start" style="white-space: pre;" direction="ltr" dominant-baseline="text-before-edge">Durata=1</text></g><g transform="translate(300.8344350526386 779.6339205954105) rotate(0 123.046875 60)"><text x="123.046875" y="0" font-family="Cascadia, Segoe UI Emoji" font-size="20px" fill="#1971c2" text-anchor="middle" style="white-space: pre;" direction="ltr" dominant-baseline="text-before-edge">Ricevo: b/#</text><text x="123.046875" y="24" font-family="Cascadia, Segoe UI Emoji" font-size="20px" fill="#1971c2" text-anchor="middle" style="white-space: pre;" direction="ltr" dominant-baseline="text-before-edge">Durata+=1 *</text><text x="123.046875" y="48" font-family="Cascadia, Segoe UI Emoji" font-size="20px" fill="#1971c2" text-anchor="middle" style="white-space: pre;" direction="ltr" dominant-baseline="text-before-edge"></text><text x="123.046875" y="72" font-family="Cascadia, Segoe UI Emoji" font-size="20px" fill="#1971c2" text-anchor="middle" style="white-space: pre;" direction="ltr" dominant-baseline="text-before-edge">*bisogna distringuere</text><text x="123.046875" y="96" font-family="Cascadia, Segoe UI Emoji" font-size="20px" fill="#1971c2" text-anchor="middle" style="white-space: pre;" direction="ltr" dominant-baseline="text-before-edge">i casi fra b e #</text></g><g transform="translate(387.8350759817549 310.7849240473406) rotate(0 52.734375 48)"><text x="52.734375" y="0" font-family="Cascadia, Segoe UI Emoji" font-size="20px" fill="#e8590c" text-anchor="middle" style="white-space: pre;" direction="ltr" dominant-baseline="text-before-edge">Ricevo: B</text><text x="52.734375" y="24" font-family="Cascadia, Segoe UI Emoji" font-size="20px" fill="#e8590c" text-anchor="middle" style="white-space: pre;" direction="ltr" dominant-baseline="text-before-edge">Salvo A</text><text x="52.734375" y="48" font-family="Cascadia, Segoe UI Emoji" font-size="20px" fill="#e8590c" text-anchor="middle" style="white-space: pre;" direction="ltr" dominant-baseline="text-before-edge">Nota=B</text><text x="52.734375" y="72" font-family="Cascadia, Segoe UI Emoji" font-size="20px" fill="#e8590c" text-anchor="middle" style="white-space: pre;" direction="ltr" dominant-baseline="text-before-edge">Durata=1</text></g><g stroke-linecap="round"><g transform="translate(489.38363004375424 735.0872751732268) rotate(0 -72.3702588247761 0)"><path d="M0 0 C-31.59 0, -63.19 0, -144.74 0" stroke="#9c36b5" stroke-width="4.5" fill="none" stroke-dasharray="1.5 10"></path></g><g transform="translate(489.38363004375424 735.0872751732268) rotate(0 -72.3702588247761 0)"><path d="M0 0 L-13.59 6.34 L-13.59 -6.34 L0 0" stroke="none" stroke-width="0" fill="#9c36b5" fill-rule="evenodd"></path><path d="M0 0 C-2.97 1.38, -5.93 2.77, -13.59 6.34 M-13.59 6.34 C-13.59 1.48, -13.59 -3.38, -13.59 -6.34 M-13.59 -6.34 C-9.01 -4.2, -4.43 -2.07, 0 0 M0 0 C0 0, 0 0, 0 0" stroke="#9c36b5" stroke-width="4.5" fill="none"></path></g></g><mask></mask><g stroke-linecap="round"><g transform="translate(247.48365580211976 474.04562855445874) rotate(0 3.637978807091713e-12 91.85574095988522)"><path d="M0 0 C0 43.8, 0 87.6, 0 183.71" stroke="#2f9e44" stroke-width="2.5" fill="none" stroke-dasharray="8 10"></path></g><g transform="translate(247.48365580211976 474.04562855445874) rotate(0 3.637978807091713e-12 91.85574095988522)"><path d="M0 0 L6.34 13.59 L-6.34 13.59 L0 0" stroke="none" stroke-width="0" fill="#2f9e44" fill-rule="evenodd"></path><path d="M0 0 C1.51 3.24, 3.02 6.48, 6.34 13.59 M6.34 13.59 C1.28 13.59, -3.79 13.59, -6.34 13.59 M-6.34 13.59 C-4.37 9.37, -2.4 5.15, 0 0 M0 0 C0 0, 0 0, 0 0" stroke="#2f9e44" stroke-width="2.5" fill="none"></path></g></g><mask></mask><g transform="translate(127.71704060838238 521.8488541313336) rotate(0 52.734375 36)"><text x="105.46875" y="0" font-family="Cascadia, Segoe UI Emoji" font-size="20px" fill="#2f9e44" text-anchor="end" style="white-space: pre;" direction="ltr" dominant-baseline="text-before-edge">Ricevo: B</text><text x="105.46875" y="24" font-family="Cascadia, Segoe UI Emoji" font-size="20px" fill="#2f9e44" text-anchor="end" style="white-space: pre;" direction="ltr" dominant-baseline="text-before-edge">Salvo A+</text><text x="105.46875" y="48" font-family="Cascadia, Segoe UI Emoji" font-size="20px" fill="#2f9e44" text-anchor="end" style="white-space: pre;" direction="ltr" dominant-baseline="text-before-edge">Durata=1</text></g><g transform="translate(353.50178918678284 706.4378789259372) rotate(0 52.734375 12)"><text x="52.734375" y="0" font-family="Cascadia, Segoe UI Emoji" font-size="20px" fill="#9c36b5" text-anchor="middle" style="white-space: pre;" direction="ltr" dominant-baseline="text-before-edge">Ricevo: A</text></g><g stroke-linecap="round"><g transform="translate(347.43705904680246 758.6516926199229) rotate(0 72.91399814656324 0)"><path d="M0 0 C49.62 0, 99.24 0, 145.83 0 M0 0 C45.24 0, 90.49 0, 145.83 0" stroke="#1971c2" stroke-width="4" fill="none"></path></g><g transform="translate(347.43705904680246 758.6516926199229) rotate(0 72.91399814656324 0)"><path d="M0 0 L13.59 -6.34 L13.59 6.34 L0 0" stroke="none" stroke-width="0" fill="#1971c2" fill-rule="evenodd"></path><path d="M0 0 C4.63 -2.16, 9.25 -4.31, 13.59 -6.34 M0 0 C4.22 -1.97, 8.44 -3.93, 13.59 -6.34 M13.59 -6.34 C13.59 -3.25, 13.59 -0.17, 13.59 6.34 M13.59 -6.34 C13.59 -1.84, 13.59 2.66, 13.59 6.34 M13.59 6.34 C9.45 4.4, 5.3 2.47, 0 0 M13.59 6.34 C9.99 4.66, 6.39 2.98, 0 0 M0 0 C0 0, 0 0, 0 0 M0 0 C0 0, 0 0, 0 0" stroke="#1971c2" stroke-width="4" fill="none"></path></g></g><mask></mask><g stroke-linecap="round"><g transform="translate(338.4299950692657 420.35984550588046) rotate(0 112.85104719680749 121.8883678355678)"><path d="M0 0 C66.01 38.11, 132.01 76.22, 225.7 130.31 M225.7 130.31 C225.7 171.97, 225.7 213.62, 225.7 243.78" stroke="#e03131" stroke-width="2.5" fill="none" stroke-dasharray="8 10"></path></g><g transform="translate(338.4299950692657 420.35984550588046) rotate(0 112.85104719680749 121.8883678355678)"><path d="M0 0 L14.94 1.31 L8.6 12.29 L0 0" stroke="none" stroke-width="0" fill="#e03131" fill-rule="evenodd"></path><path d="M0 0 C4.37 0.38, 8.74 0.76, 14.94 1.31 M14.94 1.31 C12.62 5.34, 10.29 9.37, 8.6 12.29 M8.6 12.29 C6.71 9.59, 4.82 6.89, 0 0 M0 0 C0 0, 0 0, 0 0" stroke="#e03131" stroke-width="2.5" fill="none"></path></g></g><mask></mask><g stroke-linecap="round"><g transform="translate(344.932606344315 400.4905134424639) rotate(0 119.67719457716157 131.0688432065233)"><path d="M0 0 C65.07 37.57, 130.14 75.14, 239.35 138.19 M0 0 C68.89 39.77, 137.78 79.55, 239.35 138.19 M239.35 138.19 C239.35 180.75, 239.35 223.3, 239.35 262.14 M239.35 138.19 C239.35 170.56, 239.35 202.92, 239.35 262.14" stroke="#2f9e44" stroke-width="4" fill="none"></path></g><g transform="translate(344.932606344315 400.4905134424639) rotate(0 119.67719457716157 131.0688432065233)"><path d="M0 0 L14.94 1.31 L8.6 12.29 L0 0" stroke="none" stroke-width="0" fill="#2f9e44" fill-rule="evenodd"></path><path d="M0 0 C4.06 0.36, 8.12 0.71, 14.94 1.31 M0 0 C4.3 0.38, 8.6 0.75, 14.94 1.31 M14.94 1.31 C12.77 5.08, 10.59 8.85, 8.6 12.29 M14.94 1.31 C13.29 4.17, 11.63 7.04, 8.6 12.29 M8.6 12.29 C5.42 7.74, 2.24 3.19, 0 0 M8.6 12.29 C5.63 8.04, 2.65 3.79, 0 0 M0 0 C0 0, 0 0, 0 0 M0 0 C0 0, 0 0, 0 0" stroke="#2f9e44" stroke-width="4" fill="none"></path></g></g><mask></mask><g transform="translate(434.22712494305597 561.3146979020189) rotate(0 58.59375 48)"><text x="117.1875" y="0" font-family="Cascadia, Segoe UI Emoji" font-size="20px" fill="#e03131" text-anchor="end" style="white-space: pre;" direction="ltr" dominant-baseline="text-before-edge">Ricevo: B</text><text x="117.1875" y="24" font-family="Cascadia, Segoe UI Emoji" font-size="20px" fill="#e03131" text-anchor="end" style="white-space: pre;" direction="ltr" dominant-baseline="text-before-edge">Salvo A+,A</text><text x="117.1875" y="48" font-family="Cascadia, Segoe UI Emoji" font-size="20px" fill="#e03131" text-anchor="end" style="white-space: pre;" direction="ltr" dominant-baseline="text-before-edge">Nota=B</text><text x="117.1875" y="72" font-family="Cascadia, Segoe UI Emoji" font-size="20px" fill="#e03131" text-anchor="end" style="white-space: pre;" direction="ltr" dominant-baseline="text-before-edge">Durata=1</text></g><g transform="translate(358.3025930419826 10) rotate(0 87.890625 48)"><text x="0" y="0" font-family="Cascadia, Segoe UI Emoji" font-size="20px" fill="#343a40" text-anchor="start" style="white-space: pre;" direction="ltr" dominant-baseline="text-before-edge">Durata=0</text><text x="0" y="24" font-family="Cascadia, Segoe UI Emoji" font-size="20px" fill="#343a40" text-anchor="start" style="white-space: pre;" direction="ltr" dominant-baseline="text-before-edge">Alter* =Nessuna</text><text x="0" y="48" font-family="Cascadia, Segoe UI Emoji" font-size="20px" fill="#343a40" text-anchor="start" style="white-space: pre;" direction="ltr" dominant-baseline="text-before-edge"></text><text x="0" y="72" font-family="Cascadia, Segoe UI Emoji" font-size="20px" fill="#343a40" text-anchor="start" style="white-space: pre;" direction="ltr" dominant-baseline="text-before-edge">*Alterazione</text></g><g transform="translate(592.7467918006951 561.3146986082947) rotate(0 52.734375 36)"><text x="0" y="0" font-family="Cascadia, Segoe UI Emoji" font-size="20px" fill="#2f9e44" text-anchor="start" style="white-space: pre;" direction="ltr" dominant-baseline="text-before-edge">Ricevo: A</text><text x="0" y="24" font-family="Cascadia, Segoe UI Emoji" font-size="20px" fill="#2f9e44" text-anchor="start" style="white-space: pre;" direction="ltr" dominant-baseline="text-before-edge">Salvo A+</text><text x="0" y="48" font-family="Cascadia, Segoe UI Emoji" font-size="20px" fill="#2f9e44" text-anchor="start" style="white-space: pre;" direction="ltr" dominant-baseline="text-before-edge">Durata=2</text></g><g stroke-linecap="round"><g transform="translate(384.1377558217064 364.47346742476793) rotate(0 -20.644772397296038 0)"><path d="M0 0 C-6.88 0, -34.41 0, -41.29 0" stroke="#e8590c" stroke-width="2.5" fill="none" stroke-dasharray="8 10"></path></g><g transform="translate(384.1377558217064 364.47346742476793) rotate(0 -20.644772397296038 0)"><path d="M0 0 L-13.59 6.34 L-13.59 -6.34 L0 0" stroke="none" stroke-width="0" fill="#e8590c" fill-rule="evenodd"></path><path d="M0 0 C-3.43 1.6, -6.87 3.2, -13.59 6.34 M-13.59 6.34 C-13.59 3.53, -13.59 0.72, -13.59 -6.34 M-13.59 -6.34 C-9.81 -4.57, -6.02 -2.81, 0 0 M0 0 C0 0, 0 0, 0 0" stroke="#e8590c" stroke-width="2.5" fill="none"></path></g></g><mask></mask><g stroke-linecap="round"><g transform="translate(169.73833516883315 392.82092586302906) rotate(0 -23.467029331455706 0)"><path d="M0 0 C-7.82 0, -39.11 0, -46.93 0" stroke="#f08c00" stroke-width="2.5" fill="none" stroke-dasharray="8 10"></path></g><g transform="translate(169.73833516883315 392.82092586302906) rotate(0 -23.467029331455706 0)"><path d="M-46.93 0 L-33.34 -6.34 L-33.34 6.34 L-46.93 0" stroke="none" stroke-width="0" fill="#f08c00" fill-rule="evenodd"></path><path d="M-46.93 0 C-43.51 -1.6, -40.08 -3.2, -33.34 -6.34 M-33.34 -6.34 C-33.34 -1.64, -33.34 3.07, -33.34 6.34 M-33.34 6.34 C-37.4 4.45, -41.45 2.56, -46.93 0 M-46.93 0 C-46.93 0, -46.93 0, -46.93 0" stroke="#f08c00" stroke-width="2.5" fill="none"></path></g></g><mask></mask><g stroke-linecap="round"><g transform="translate(337.4686870512669 344.11662843713975) rotate(0 23.33453438521974 0)"><path d="M0 0 C7.78 0, 38.89 0, 46.67 0" stroke="#e8590c" stroke-width="2.5" fill="none" stroke-dasharray="8 10"></path></g><g transform="translate(337.4686870512669 344.11662843713975) rotate(0 23.33453438521974 0)"><path d="M0 0 L13.59 -6.34 L13.59 6.34 L0 0" stroke="none" stroke-width="0" fill="#e8590c" fill-rule="evenodd"></path><path d="M0 0 C3.56 -1.66, 7.11 -3.32, 13.59 -6.34 M13.59 -6.34 C13.59 -1.48, 13.59 3.37, 13.59 6.34 M13.59 6.34 C9.21 4.29, 4.82 2.25, 0 0 M0 0 C0 0, 0 0, 0 0" stroke="#e8590c" stroke-width="2.5" fill="none"></path></g></g><mask></mask><g stroke-linecap="round"><g transform="translate(123.2967365478471 372.4640868754009) rotate(0 23.22079931049302 0)"><path d="M0 0 C7.74 0, 38.7 0, 46.44 0" stroke="#f08c00" stroke-width="2.5" fill="none" stroke-dasharray="8 10"></path></g><g transform="translate(123.2967365478471 372.4640868754009) rotate(0 23.22079931049302 0)"><path d="M46.44 0 L32.85 6.34 L32.85 -6.34 L46.44 0" stroke="none" stroke-width="0" fill="#f08c00" fill-rule="evenodd"></path><path d="M46.44 0 C41.87 2.13, 37.31 4.26, 32.85 6.34 M32.85 6.34 C32.85 1.53, 32.85 -3.27, 32.85 -6.34 M32.85 -6.34 C36.26 -4.75, 39.68 -3.15, 46.44 0 M46.44 0 C46.44 0, 46.44 0, 46.44 0" stroke="#f08c00" stroke-width="2.5" fill="none"></path></g></g><mask></mask></svg>