<svg version="1.1" xmlns="http://www.w3.org/2000/svg" viewBox="0 0 515.8653855928424 454.76513989646446" width="515.8653855928424" height="454.76513989646446" filter="invert(93%) hue-rotate(180deg)">
  <!-- svg-source:excalidraw -->
  
  <defs>
    <style class="style-fonts">
      @font-face {
        font-family: "Virgil";
        src: url("https://excalidraw.com/Virgil.woff2");
      }
      @font-face {
        font-family: "Cascadia";
        src: url("https://excalidraw.com/Cascadia.woff2");
      }
      @font-face {
        font-family: "Assistant";
        src: url("https://excalidraw.com/Assistant-Regular.woff2");
      }
    </style>
    
  </defs>
  <g stroke-linecap="round" transform="translate(180.46133683418157 10) rotate(0 80.90164730399192 80.90164730399283)"><path d="M161.8 80.9 C161.8 83.72, 161.65 86.55, 161.36 89.36 C161.07 92.16, 160.62 94.96, 160.04 97.72 C159.45 100.48, 158.71 103.22, 157.84 105.9 C156.97 108.58, 155.96 111.23, 154.81 113.81 C153.66 116.38, 152.37 118.91, 150.96 121.35 C149.56 123.79, 148.01 126.17, 146.35 128.45 C144.7 130.73, 142.91 132.94, 141.02 135.04 C139.14 137.13, 137.13 139.14, 135.04 141.02 C132.94 142.91, 130.73 144.7, 128.45 146.35 C126.17 148.01, 123.79 149.56, 121.35 150.96 C118.91 152.37, 116.38 153.66, 113.81 154.81 C111.23 155.96, 108.58 156.97, 105.9 157.84 C103.22 158.71, 100.48 159.45, 97.72 160.04 C94.96 160.62, 92.16 161.07, 89.36 161.36 C86.55 161.65, 83.72 161.8, 80.9 161.8 C78.08 161.8, 75.25 161.65, 72.45 161.36 C69.64 161.07, 66.84 160.62, 64.08 160.04 C61.32 159.45, 58.58 158.71, 55.9 157.84 C53.22 156.97, 50.57 155.96, 48 154.81 C45.42 153.66, 42.89 152.37, 40.45 150.96 C38.01 149.56, 35.63 148.01, 33.35 146.35 C31.07 144.7, 28.86 142.91, 26.77 141.02 C24.67 139.14, 22.67 137.13, 20.78 135.04 C18.89 132.94, 17.11 130.73, 15.45 128.45 C13.79 126.17, 12.25 123.79, 10.84 121.35 C9.43 118.91, 8.14 116.38, 6.99 113.81 C5.85 111.23, 4.83 108.58, 3.96 105.9 C3.09 103.22, 2.35 100.48, 1.77 97.72 C1.18 94.96, 0.74 92.16, 0.44 89.36 C0.15 86.55, 0 83.72, 0 80.9 C0 78.08, 0.15 75.25, 0.44 72.45 C0.74 69.64, 1.18 66.84, 1.77 64.08 C2.35 61.32, 3.09 58.58, 3.96 55.9 C4.83 53.22, 5.85 50.57, 6.99 48 C8.14 45.42, 9.43 42.89, 10.84 40.45 C12.25 38.01, 13.79 35.63, 15.45 33.35 C17.11 31.07, 18.89 28.86, 20.78 26.77 C22.67 24.67, 24.67 22.67, 26.77 20.78 C28.86 18.89, 31.07 17.11, 33.35 15.45 C35.63 13.79, 38.01 12.25, 40.45 10.84 C42.89 9.43, 45.42 8.14, 48 6.99 C50.57 5.85, 53.22 4.83, 55.9 3.96 C58.58 3.09, 61.32 2.35, 64.08 1.77 C66.84 1.18, 69.64 0.74, 72.45 0.44 C75.25 0.15, 78.08 0, 80.9 0 C83.72 0, 86.55 0.15, 89.36 0.44 C92.16 0.74, 94.96 1.18, 97.72 1.77 C100.48 2.35, 103.22 3.09, 105.9 3.96 C108.58 4.83, 111.23 5.85, 113.81 6.99 C116.38 8.14, 118.91 9.43, 121.35 10.84 C123.79 12.25, 126.17 13.79, 128.45 15.45 C130.73 17.11, 132.94 18.89, 135.04 20.78 C137.13 22.67, 139.14 24.67, 141.02 26.77 C142.91 28.86, 144.7 31.07, 146.35 33.35 C148.01 35.63, 149.56 38.01, 150.96 40.45 C152.37 42.89, 153.66 45.42, 154.81 48 C155.96 50.57, 156.97 53.22, 157.84 55.9 C158.71 58.58, 159.45 61.32, 160.04 64.08 C160.62 66.84, 161.07 69.64, 161.36 72.45 C161.65 75.25, 161.73 79.49, 161.8 80.9 C161.88 82.31, 161.88 79.49, 161.8 80.9" stroke="#343a40" stroke-width="4.5" fill="none" stroke-dasharray="8 12"></path></g><g stroke-linecap="round" transform="translate(180.46133683418157 282.9618452884788) rotate(0 80.90164730399192 80.90164730399283)"><path d="M161.8 80.9 C161.8 83.72, 161.65 86.55, 161.36 89.36 C161.07 92.16, 160.62 94.96, 160.04 97.72 C159.45 100.48, 158.71 103.22, 157.84 105.9 C156.97 108.58, 155.96 111.23, 154.81 113.81 C153.66 116.38, 152.37 118.91, 150.96 121.35 C149.56 123.79, 148.01 126.17, 146.35 128.45 C144.7 130.73, 142.91 132.94, 141.02 135.04 C139.14 137.13, 137.13 139.14, 135.04 141.02 C132.94 142.91, 130.73 144.7, 128.45 146.35 C126.17 148.01, 123.79 149.56, 121.35 150.96 C118.91 152.37, 116.38 153.66, 113.81 154.81 C111.23 155.96, 108.58 156.97, 105.9 157.84 C103.22 158.71, 100.48 159.45, 97.72 160.04 C94.96 160.62, 92.16 161.07, 89.36 161.36 C86.55 161.65, 83.72 161.8, 80.9 161.8 C78.08 161.8, 75.25 161.65, 72.45 161.36 C69.64 161.07, 66.84 160.62, 64.08 160.04 C61.32 159.45, 58.58 158.71, 55.9 157.84 C53.22 156.97, 50.57 155.96, 48 154.81 C45.42 153.66, 42.89 152.37, 40.45 150.96 C38.01 149.56, 35.63 148.01, 33.35 146.35 C31.07 144.7, 28.86 142.91, 26.77 141.02 C24.67 139.14, 22.67 137.13, 20.78 135.04 C18.89 132.94, 17.11 130.73, 15.45 128.45 C13.79 126.17, 12.25 123.79, 10.84 121.35 C9.43 118.91, 8.14 116.38, 6.99 113.81 C5.85 111.23, 4.83 108.58, 3.96 105.9 C3.09 103.22, 2.35 100.48, 1.77 97.72 C1.18 94.96, 0.74 92.16, 0.44 89.36 C0.15 86.55, 0 83.72, 0 80.9 C0 78.08, 0.15 75.25, 0.44 72.45 C0.74 69.64, 1.18 66.84, 1.77 64.08 C2.35 61.32, 3.09 58.58, 3.96 55.9 C4.83 53.22, 5.85 50.57, 6.99 48 C8.14 45.42, 9.43 42.89, 10.84 40.45 C12.25 38.01, 13.79 35.63, 15.45 33.35 C17.11 31.07, 18.89 28.86, 20.78 26.77 C22.67 24.67, 24.67 22.67, 26.77 20.78 C28.86 18.89, 31.07 17.11, 33.35 15.45 C35.63 13.79, 38.01 12.25, 40.45 10.84 C42.89 9.43, 45.42 8.14, 48 6.99 C50.57 5.85, 53.22 4.83, 55.9 3.96 C58.58 3.09, 61.32 2.35, 64.08 1.77 C66.84 1.18, 69.64 0.74, 72.45 0.44 C75.25 0.15, 78.08 0, 80.9 0 C83.72 0, 86.55 0.15, 89.36 0.44 C92.16 0.74, 94.96 1.18, 97.72 1.77 C100.48 2.35, 103.22 3.09, 105.9 3.96 C108.58 4.83, 111.23 5.85, 113.81 6.99 C116.38 8.14, 118.91 9.43, 121.35 10.84 C123.79 12.25, 126.17 13.79, 128.45 15.45 C130.73 17.11, 132.94 18.89, 135.04 20.78 C137.13 22.67, 139.14 24.67, 141.02 26.77 C142.91 28.86, 144.7 31.07, 146.35 33.35 C148.01 35.63, 149.56 38.01, 150.96 40.45 C152.37 42.89, 153.66 45.42, 154.81 48 C155.96 50.57, 156.97 53.22, 157.84 55.9 C158.71 58.58, 159.45 61.32, 160.04 64.08 C160.62 66.84, 161.07 69.64, 161.36 72.45 C161.65 75.25, 161.73 79.49, 161.8 80.9 C161.88 82.31, 161.88 79.49, 161.8 80.9" stroke="#2f9e44" stroke-width="4" fill="none"></path></g><g transform="translate(205.657005744637 55.90164730399192) rotate(0 57.421875 33.59999999999991)"><text x="57.421875" y="0" font-family="Cascadia, Segoe UI Emoji" font-size="28px" fill="#343a40" text-anchor="middle" style="white-space: pre;" direction="ltr" dominant-baseline="text-before-edge">Nessuna</text><text x="57.421875" y="33.6" font-family="Cascadia, Segoe UI Emoji" font-size="28px" fill="#343a40" text-anchor="middle" style="white-space: pre;" direction="ltr" dominant-baseline="text-before-edge">Nota</text></g><g transform="translate(207.77100415772293 346.36349259247254) rotate(0 57.421875 16.799999999999955)"><text x="57.421875" y="0" font-family="Cascadia, Segoe UI Emoji" font-size="28px" fill="#2f9e44" text-anchor="middle" style="white-space: pre;" direction="ltr" dominant-baseline="text-before-edge">Nota: A</text></g><g stroke-linecap="round"><g transform="translate(260.10085540531145 277.21950366703186) rotate(0 -2.3949542082846165e-7 -50.21696805334227)"><path d="M0 0 C0 -29.95, 0 -59.9, 0 -100.43 M0 0 C0 -34.14, 0 -68.28, 0 -100.43" stroke="#2f9e44" stroke-width="4" fill="none"></path></g><g transform="translate(260.10085540531145 277.21950366703186) rotate(0 -2.3949542082846165e-7 -50.21696805334227)"><path d="M0 0 L-6.34 -13.59 L6.34 -13.59 L0 0" stroke="none" stroke-width="0" fill="#2f9e44" fill-rule="evenodd"></path><path d="M0 0 C-1.89 -4.05, -3.78 -8.11, -6.34 -13.59 M0 0 C-2.15 -4.62, -4.31 -9.24, -6.34 -13.59 M-6.34 -13.59 C-1.5 -13.59, 3.33 -13.59, 6.34 -13.59 M-6.34 -13.59 C-1.71 -13.59, 2.93 -13.59, 6.34 -13.59 M6.34 -13.59 C4.56 -9.77, 2.77 -5.95, 0 0 M6.34 -13.59 C4.8 -10.3, 3.27 -7.01, 0 0 M0 0 C0 0, 0 0, 0 0 M0 0 C0 0, 0 0, 0 0" stroke="#2f9e44" stroke-width="4" fill="none"></path></g></g><mask></mask><g transform="translate(10 341.7239879226063) rotate(0 52.734375 24)"><text x="52.734375" y="0" font-family="Cascadia, Segoe UI Emoji" font-size="20px" fill="#f08c00" text-anchor="middle" style="white-space: pre;" direction="ltr" dominant-baseline="text-before-edge">Ricevo: A</text><text x="52.734375" y="24" font-family="Cascadia, Segoe UI Emoji" font-size="20px" fill="#f08c00" text-anchor="middle" style="white-space: pre;" direction="ltr" dominant-baseline="text-before-edge">Durata+=1</text></g><g transform="translate(273.58652236909256 180.16748916256256) rotate(0 52.734375 36)"><text x="0" y="0" font-family="Cascadia, Segoe UI Emoji" font-size="20px" fill="#2f9e44" text-anchor="start" style="white-space: pre;" direction="ltr" dominant-baseline="text-before-edge">Ricevo: A</text><text x="0" y="24" font-family="Cascadia, Segoe UI Emoji" font-size="20px" fill="#2f9e44" text-anchor="start" style="white-space: pre;" direction="ltr" dominant-baseline="text-before-edge">Nota=A</text><text x="0" y="48" font-family="Cascadia, Segoe UI Emoji" font-size="20px" fill="#2f9e44" text-anchor="start" style="white-space: pre;" direction="ltr" dominant-baseline="text-before-edge">Durata=1</text></g><g transform="translate(400.39663559284236 321.7232549394812) rotate(0 52.734375 48)"><text x="52.734375" y="0" font-family="Cascadia, Segoe UI Emoji" font-size="20px" fill="#e8590c" text-anchor="middle" style="white-space: pre;" direction="ltr" dominant-baseline="text-before-edge">Ricevo: B</text><text x="52.734375" y="24" font-family="Cascadia, Segoe UI Emoji" font-size="20px" fill="#e8590c" text-anchor="middle" style="white-space: pre;" direction="ltr" dominant-baseline="text-before-edge">Salvo A</text><text x="52.734375" y="48" font-family="Cascadia, Segoe UI Emoji" font-size="20px" fill="#e8590c" text-anchor="middle" style="white-space: pre;" direction="ltr" dominant-baseline="text-before-edge">Nota=B</text><text x="52.734375" y="72" font-family="Cascadia, Segoe UI Emoji" font-size="20px" fill="#e8590c" text-anchor="middle" style="white-space: pre;" direction="ltr" dominant-baseline="text-before-edge">Durata=1</text></g><g transform="translate(363.49298304197146 77.50164696163665) rotate(0 46.875 12)"><text x="0" y="0" font-family="Cascadia, Segoe UI Emoji" font-size="20px" fill="#343a40" text-anchor="start" style="white-space: pre;" direction="ltr" dominant-baseline="text-before-edge">Durata=0</text></g><g stroke-linecap="round"><g transform="translate(396.6993154327938 375.41179831690897) rotate(0 -20.644772397296038 0)"><path d="M0 0 C-6.88 0, -34.41 0, -41.29 0" stroke="#e8590c" stroke-width="2.5" fill="none" stroke-dasharray="8 10"></path></g><g transform="translate(396.6993154327938 375.41179831690897) rotate(0 -20.644772397296038 0)"><path d="M0 0 L-13.59 6.34 L-13.59 -6.34 L0 0" stroke="none" stroke-width="0" fill="#e8590c" fill-rule="evenodd"></path><path d="M0 0 C-4.93 2.3, -9.86 4.6, -13.59 6.34 M-13.59 6.34 C-13.59 1.48, -13.59 -3.39, -13.59 -6.34 M-13.59 -6.34 C-9.18 -4.28, -4.77 -2.23, 0 0 M0 0 C0 0, 0 0, 0 0" stroke="#e8590c" stroke-width="2.5" fill="none"></path></g></g><mask></mask><g stroke-linecap="round"><g transform="translate(169.73833516883315 375.49574763021155) rotate(0 -23.467029331455706 0)"><path d="M0 0 C-7.82 0, -39.11 0, -46.93 0" stroke="#f08c00" stroke-width="2.5" fill="none" stroke-dasharray="8 10"></path></g><g transform="translate(169.73833516883315 375.49574763021155) rotate(0 -23.467029331455706 0)"><path d="M-46.93 0 L-33.34 -6.34 L-33.34 6.34 L-46.93 0" stroke="none" stroke-width="0" fill="#f08c00" fill-rule="evenodd"></path><path d="M-46.93 0 C-43.15 -1.77, -39.36 -3.53, -33.34 -6.34 M-33.34 -6.34 C-33.34 -3.76, -33.34 -1.19, -33.34 6.34 M-33.34 6.34 C-36.16 5.02, -38.99 3.7, -46.93 0 M-46.93 0 C-46.93 0, -46.93 0, -46.93 0" stroke="#f08c00" stroke-width="2.5" fill="none"></path></g></g><mask></mask><g stroke-linecap="round"><g transform="translate(350.03024666235433 355.0549593292799) rotate(0 23.33453438521974 0)"><path d="M0 0 C7.78 0, 38.89 0, 46.67 0" stroke="#e8590c" stroke-width="2.5" fill="none" stroke-dasharray="8 10"></path></g><g transform="translate(350.03024666235433 355.0549593292799) rotate(0 23.33453438521974 0)"><path d="M0 0 L13.59 -6.34 L13.59 6.34 L0 0" stroke="none" stroke-width="0" fill="#e8590c" fill-rule="evenodd"></path><path d="M0 0 C4.72 -2.2, 9.44 -4.4, 13.59 -6.34 M13.59 -6.34 C13.59 -1.89, 13.59 2.56, 13.59 6.34 M13.59 6.34 C10.84 5.05, 8.08 3.77, 0 0 M0 0 C0 0, 0 0, 0 0" stroke="#e8590c" stroke-width="2.5" fill="none"></path></g></g><mask></mask><g stroke-linecap="round"><g transform="translate(123.29673654783983 355.13890864258246) rotate(0 23.22079931049302 0)"><path d="M0 0 C7.74 0, 38.7 0, 46.44 0" stroke="#f08c00" stroke-width="2.5" fill="none" stroke-dasharray="8 10"></path></g><g transform="translate(123.29673654783983 355.13890864258246) rotate(0 23.22079931049302 0)"><path d="M46.44 0 L32.85 6.34 L32.85 -6.34 L46.44 0" stroke="none" stroke-width="0" fill="#f08c00" fill-rule="evenodd"></path><path d="M46.44 0 C41.68 2.22, 36.92 4.44, 32.85 6.34 M32.85 6.34 C32.85 3.78, 32.85 1.21, 32.85 -6.34 M32.85 -6.34 C36.44 -4.66, 40.03 -2.99, 46.44 0 M46.44 0 C46.44 0, 46.44 0, 46.44 0" stroke="#f08c00" stroke-width="2.5" fill="none"></path></g></g><mask></mask></svg>