<svg version="1.1" xmlns="http://www.w3.org/2000/svg" viewBox="0 0 708.2155418006878 886.0279625570465" width="708.2155418006878" height="886.0279625570465" filter="invert(93%) hue-rotate(180deg)">
  <!-- svg-source:excalidraw -->
  
  <defs>
    <style class="style-fonts">
      @font-face {
        font-family: "Virgil";
        src: url("https://excalidraw.com/Virgil.woff2");
      }
      @font-face {
        font-family: "Cascadia";
        src: url("https://excalidraw.com/Cascadia.woff2");
      }
      @font-face {
        font-family: "Assistant";
        src: url("https://excalidraw.com/Assistant-Regular.woff2");
      }
    </style>
    
  </defs>
  <g stroke-linecap="round" transform="translate(180.46133683419612 10) rotate(0 80.90164730399192 80.90164730399283)"><path d="M161.8 80.9 C161.8 83.72, 161.65 86.55, 161.36 89.36 C161.07 92.16, 160.62 94.96, 160.04 97.72 C159.45 100.48, 158.71 103.22, 157.84 105.9 C156.97 108.58, 155.96 111.23, 154.81 113.81 C153.66 116.38, 152.37 118.91, 150.96 121.35 C149.56 123.79, 148.01 126.17, 146.35 128.45 C144.7 130.73, 142.91 132.94, 141.02 135.04 C139.14 137.13, 137.13 139.14, 135.04 141.02 C132.94 142.91, 130.73 144.7, 128.45 146.35 C126.17 148.01, 123.79 149.56, 121.35 150.96 C118.91 152.37, 116.38 153.66, 113.81 154.81 C111.23 155.96, 108.58 156.97, 105.9 157.84 C103.22 158.71, 100.48 159.45, 97.72 160.04 C94.96 160.62, 92.16 161.07, 89.36 161.36 C86.55 161.65, 83.72 161.8, 80.9 161.8 C78.08 161.8, 75.25 161.65, 72.45 161.36 C69.64 161.07, 66.84 160.62, 64.08 160.04 C61.32 159.45, 58.58 158.71, 55.9 157.84 C53.22 156.97, 50.57 155.96, 48 154.81 C45.42 153.66, 42.89 152.37, 40.45 150.96 C38.01 149.56, 35.63 148.01, 33.35 146.35 C31.07 144.7, 28.86 142.91, 26.77 141.02 C24.67 139.14, 22.67 137.13, 20.78 135.04 C18.89 132.94, 17.11 130.73, 15.45 128.45 C13.79 126.17, 12.25 123.79, 10.84 121.35 C9.43 118.91, 8.14 116.38, 6.99 113.81 C5.85 111.23, 4.83 108.58, 3.96 105.9 C3.09 103.22, 2.35 100.48, 1.77 97.72 C1.18 94.96, 0.74 92.16, 0.44 89.36 C0.15 86.55, 0 83.72, 0 80.9 C0 78.08, 0.15 75.25, 0.44 72.45 C0.74 69.64, 1.18 66.84, 1.77 64.08 C2.35 61.32, 3.09 58.58, 3.96 55.9 C4.83 53.22, 5.85 50.57, 6.99 48 C8.14 45.42, 9.43 42.89, 10.84 40.45 C12.25 38.01, 13.79 35.63, 15.45 33.35 C17.11 31.07, 18.89 28.86, 20.78 26.77 C22.67 24.67, 24.67 22.67, 26.77 20.78 C28.86 18.89, 31.07 17.11, 33.35 15.45 C35.63 13.79, 38.01 12.25, 40.45 10.84 C42.89 9.43, 45.42 8.14, 48 6.99 C50.57 5.85, 53.22 4.83, 55.9 3.96 C58.58 3.09, 61.32 2.35, 64.08 1.77 C66.84 1.18, 69.64 0.74, 72.45 0.44 C75.25 0.15, 78.08 0, 80.9 0 C83.72 0, 86.55 0.15, 89.36 0.44 C92.16 0.74, 94.96 1.18, 97.72 1.77 C100.48 2.35, 103.22 3.09, 105.9 3.96 C108.58 4.83, 111.23 5.85, 113.81 6.99 C116.38 8.14, 118.91 9.43, 121.35 10.84 C123.79 12.25, 126.17 13.79, 128.45 15.45 C130.73 17.11, 132.94 18.89, 135.04 20.78 C137.13 22.67, 139.14 24.67, 141.02 26.77 C142.91 28.86, 144.7 31.07, 146.35 33.35 C148.01 35.63, 149.56 38.01, 150.96 40.45 C152.37 42.89, 153.66 45.42, 154.81 48 C155.96 50.57, 156.97 53.22, 157.84 55.9 C158.71 58.58, 159.45 61.32, 160.04 64.08 C160.62 66.84, 161.07 69.64, 161.36 72.45 C161.65 75.25, 161.73 79.49, 161.8 80.9 C161.88 82.31, 161.88 79.49, 161.8 80.9" stroke="#343a40" stroke-width="4.5" fill="none" stroke-dasharray="8 12"></path></g><g stroke-linecap="round" transform="translate(180.46133683419612 282.9618452884788) rotate(0 80.90164730399192 80.90164730399283)"><path d="M161.8 80.9 C161.8 83.72, 161.65 86.55, 161.36 89.36 C161.07 92.16, 160.62 94.96, 160.04 97.72 C159.45 100.48, 158.71 103.22, 157.84 105.9 C156.97 108.58, 155.96 111.23, 154.81 113.81 C153.66 116.38, 152.37 118.91, 150.96 121.35 C149.56 123.79, 148.01 126.17, 146.35 128.45 C144.7 130.73, 142.91 132.94, 141.02 135.04 C139.14 137.13, 137.13 139.14, 135.04 141.02 C132.94 142.91, 130.73 144.7, 128.45 146.35 C126.17 148.01, 123.79 149.56, 121.35 150.96 C118.91 152.37, 116.38 153.66, 113.81 154.81 C111.23 155.96, 108.58 156.97, 105.9 157.84 C103.22 158.71, 100.48 159.45, 97.72 160.04 C94.96 160.62, 92.16 161.07, 89.36 161.36 C86.55 161.65, 83.72 161.8, 80.9 161.8 C78.08 161.8, 75.25 161.65, 72.45 161.36 C69.64 161.07, 66.84 160.62, 64.08 160.04 C61.32 159.45, 58.58 158.71, 55.9 157.84 C53.22 156.97, 50.57 155.96, 48 154.81 C45.42 153.66, 42.89 152.37, 40.45 150.96 C38.01 149.56, 35.63 148.01, 33.35 146.35 C31.07 144.7, 28.86 142.91, 26.77 141.02 C24.67 139.14, 22.67 137.13, 20.78 135.04 C18.89 132.94, 17.11 130.73, 15.45 128.45 C13.79 126.17, 12.25 123.79, 10.84 121.35 C9.43 118.91, 8.14 116.38, 6.99 113.81 C5.85 111.23, 4.83 108.58, 3.96 105.9 C3.09 103.22, 2.35 100.48, 1.77 97.72 C1.18 94.96, 0.74 92.16, 0.44 89.36 C0.15 86.55, 0 83.72, 0 80.9 C0 78.08, 0.15 75.25, 0.44 72.45 C0.74 69.64, 1.18 66.84, 1.77 64.08 C2.35 61.32, 3.09 58.58, 3.96 55.9 C4.83 53.22, 5.85 50.57, 6.99 48 C8.14 45.42, 9.43 42.89, 10.84 40.45 C12.25 38.01, 13.79 35.63, 15.45 33.35 C17.11 31.07, 18.89 28.86, 20.78 26.77 C22.67 24.67, 24.67 22.67, 26.77 20.78 C28.86 18.89, 31.07 17.11, 33.35 15.45 C35.63 13.79, 38.01 12.25, 40.45 10.84 C42.89 9.43, 45.42 8.14, 48 6.99 C50.57 5.85, 53.22 4.83, 55.9 3.96 C58.58 3.09, 61.32 2.35, 64.08 1.77 C66.84 1.18, 69.64 0.74, 72.45 0.44 C75.25 0.15, 78.08 0, 80.9 0 C83.72 0, 86.55 0.15, 89.36 0.44 C92.16 0.74, 94.96 1.18, 97.72 1.77 C100.48 2.35, 103.22 3.09, 105.9 3.96 C108.58 4.83, 111.23 5.85, 113.81 6.99 C116.38 8.14, 118.91 9.43, 121.35 10.84 C123.79 12.25, 126.17 13.79, 128.45 15.45 C130.73 17.11, 132.94 18.89, 135.04 20.78 C137.13 22.67, 139.14 24.67, 141.02 26.77 C142.91 28.86, 144.7 31.07, 146.35 33.35 C148.01 35.63, 149.56 38.01, 150.96 40.45 C152.37 42.89, 153.66 45.42, 154.81 48 C155.96 50.57, 156.97 53.22, 157.84 55.9 C158.71 58.58, 159.45 61.32, 160.04 64.08 C160.62 66.84, 161.07 69.64, 161.36 72.45 C161.65 75.25, 161.73 79.49, 161.8 80.9 C161.88 82.31, 161.88 79.49, 161.8 80.9" stroke="#2f9e44" stroke-width="4" fill="none"></path></g><g stroke-linecap="round" transform="translate(182.49100657190138 642.7910888759038) rotate(0 80.90164730399192 80.90164730399283)"><path d="M161.8 80.9 C161.8 83.72, 161.65 86.55, 161.36 89.36 C161.07 92.16, 160.62 94.96, 160.04 97.72 C159.45 100.48, 158.71 103.22, 157.84 105.9 C156.97 108.58, 155.96 111.23, 154.81 113.81 C153.66 116.38, 152.37 118.91, 150.96 121.35 C149.56 123.79, 148.01 126.17, 146.35 128.45 C144.7 130.73, 142.91 132.94, 141.02 135.04 C139.14 137.13, 137.13 139.14, 135.04 141.02 C132.94 142.91, 130.73 144.7, 128.45 146.35 C126.17 148.01, 123.79 149.56, 121.35 150.96 C118.91 152.37, 116.38 153.66, 113.81 154.81 C111.23 155.96, 108.58 156.97, 105.9 157.84 C103.22 158.71, 100.48 159.45, 97.72 160.04 C94.96 160.62, 92.16 161.07, 89.36 161.36 C86.55 161.65, 83.72 161.8, 80.9 161.8 C78.08 161.8, 75.25 161.65, 72.45 161.36 C69.64 161.07, 66.84 160.62, 64.08 160.04 C61.32 159.45, 58.58 158.71, 55.9 157.84 C53.22 156.97, 50.57 155.96, 48 154.81 C45.42 153.66, 42.89 152.37, 40.45 150.96 C38.01 149.56, 35.63 148.01, 33.35 146.35 C31.07 144.7, 28.86 142.91, 26.77 141.02 C24.67 139.14, 22.67 137.13, 20.78 135.04 C18.89 132.94, 17.11 130.73, 15.45 128.45 C13.79 126.17, 12.25 123.79, 10.84 121.35 C9.43 118.91, 8.14 116.38, 6.99 113.81 C5.85 111.23, 4.83 108.58, 3.96 105.9 C3.09 103.22, 2.35 100.48, 1.77 97.72 C1.18 94.96, 0.74 92.16, 0.44 89.36 C0.15 86.55, 0 83.72, 0 80.9 C0 78.08, 0.15 75.25, 0.44 72.45 C0.74 69.64, 1.18 66.84, 1.77 64.08 C2.35 61.32, 3.09 58.58, 3.96 55.9 C4.83 53.22, 5.85 50.57, 6.99 48 C8.14 45.42, 9.43 42.89, 10.84 40.45 C12.25 38.01, 13.79 35.63, 15.45 33.35 C17.11 31.07, 18.89 28.86, 20.78 26.77 C22.67 24.67, 24.67 22.67, 26.77 20.78 C28.86 18.89, 31.07 17.11, 33.35 15.45 C35.63 13.79, 38.01 12.25, 40.45 10.84 C42.89 9.43, 45.42 8.14, 48 6.99 C50.57 5.85, 53.22 4.83, 55.9 3.96 C58.58 3.09, 61.32 2.35, 64.08 1.77 C66.84 1.18, 69.64 0.74, 72.45 0.44 C75.25 0.15, 78.08 0, 80.9 0 C83.72 0, 86.55 0.15, 89.36 0.44 C92.16 0.74, 94.96 1.18, 97.72 1.77 C100.48 2.35, 103.22 3.09, 105.9 3.96 C108.58 4.83, 111.23 5.85, 113.81 6.99 C116.38 8.14, 118.91 9.43, 121.35 10.84 C123.79 12.25, 126.17 13.79, 128.45 15.45 C130.73 17.11, 132.94 18.89, 135.04 20.78 C137.13 22.67, 139.14 24.67, 141.02 26.77 C142.91 28.86, 144.7 31.07, 146.35 33.35 C148.01 35.63, 149.56 38.01, 150.96 40.45 C152.37 42.89, 153.66 45.42, 154.81 48 C155.96 50.57, 156.97 53.22, 157.84 55.9 C158.71 58.58, 159.45 61.32, 160.04 64.08 C160.62 66.84, 161.07 69.64, 161.36 72.45 C161.65 75.25, 161.73 79.49, 161.8 80.9 C161.88 82.31, 161.88 79.49, 161.8 80.9" stroke="#1971c2" stroke-width="4" fill="none"></path></g><g stroke-linecap="round" transform="translate(493.4454945409816 644.0599964891517) rotate(0 80.90164730399192 80.90164730399283)"><path d="M161.8 80.9 C161.8 83.72, 161.65 86.55, 161.36 89.36 C161.07 92.16, 160.62 94.96, 160.04 97.72 C159.45 100.48, 158.71 103.22, 157.84 105.9 C156.97 108.58, 155.96 111.23, 154.81 113.81 C153.66 116.38, 152.37 118.91, 150.96 121.35 C149.56 123.79, 148.01 126.17, 146.35 128.45 C144.7 130.73, 142.91 132.94, 141.02 135.04 C139.14 137.13, 137.13 139.14, 135.04 141.02 C132.94 142.91, 130.73 144.7, 128.45 146.35 C126.17 148.01, 123.79 149.56, 121.35 150.96 C118.91 152.37, 116.38 153.66, 113.81 154.81 C111.23 155.96, 108.58 156.97, 105.9 157.84 C103.22 158.71, 100.48 159.45, 97.72 160.04 C94.96 160.62, 92.16 161.07, 89.36 161.36 C86.55 161.65, 83.72 161.8, 80.9 161.8 C78.08 161.8, 75.25 161.65, 72.45 161.36 C69.64 161.07, 66.84 160.62, 64.08 160.04 C61.32 159.45, 58.58 158.71, 55.9 157.84 C53.22 156.97, 50.57 155.96, 48 154.81 C45.42 153.66, 42.89 152.37, 40.45 150.96 C38.01 149.56, 35.63 148.01, 33.35 146.35 C31.07 144.7, 28.86 142.91, 26.77 141.02 C24.67 139.14, 22.67 137.13, 20.78 135.04 C18.89 132.94, 17.11 130.73, 15.45 128.45 C13.79 126.17, 12.25 123.79, 10.84 121.35 C9.43 118.91, 8.14 116.38, 6.99 113.81 C5.85 111.23, 4.83 108.58, 3.96 105.9 C3.09 103.22, 2.35 100.48, 1.77 97.72 C1.18 94.96, 0.74 92.16, 0.44 89.36 C0.15 86.55, 0 83.72, 0 80.9 C0 78.08, 0.15 75.25, 0.44 72.45 C0.74 69.64, 1.18 66.84, 1.77 64.08 C2.35 61.32, 3.09 58.58, 3.96 55.9 C4.83 53.22, 5.85 50.57, 6.99 48 C8.14 45.42, 9.43 42.89, 10.84 40.45 C12.25 38.01, 13.79 35.63, 15.45 33.35 C17.11 31.07, 18.89 28.86, 20.78 26.77 C22.67 24.67, 24.67 22.67, 26.77 20.78 C28.86 18.89, 31.07 17.11, 33.35 15.45 C35.63 13.79, 38.01 12.25, 40.45 10.84 C42.89 9.43, 45.42 8.14, 48 6.99 C50.57 5.85, 53.22 4.83, 55.9 3.96 C58.58 3.09, 61.32 2.35, 64.08 1.77 C66.84 1.18, 69.64 0.74, 72.45 0.44 C75.25 0.15, 78.08 0, 80.9 0 C83.72 0, 86.55 0.15, 89.36 0.44 C92.16 0.74, 94.96 1.18, 97.72 1.77 C100.48 2.35, 103.22 3.09, 105.9 3.96 C108.58 4.83, 111.23 5.85, 113.81 6.99 C116.38 8.14, 118.91 9.43, 121.35 10.84 C123.79 12.25, 126.17 13.79, 128.45 15.45 C130.73 17.11, 132.94 18.89, 135.04 20.78 C137.13 22.67, 139.14 24.67, 141.02 26.77 C142.91 28.86, 144.7 31.07, 146.35 33.35 C148.01 35.63, 149.56 38.01, 150.96 40.45 C152.37 42.89, 153.66 45.42, 154.81 48 C155.96 50.57, 156.97 53.22, 157.84 55.9 C158.71 58.58, 159.45 61.32, 160.04 64.08 C160.62 66.84, 161.07 69.64, 161.36 72.45 C161.65 75.25, 161.73 79.49, 161.8 80.9 C161.88 82.31, 161.88 79.49, 161.8 80.9" stroke="#9c36b5" stroke-width="4.5" fill="none" stroke-dasharray="1.5 10"></path></g><g transform="translate(205.657005744637 55.90164730399192) rotate(0 57.421875 33.59999999999991)"><text x="57.421875" y="0" font-family="Cascadia, Segoe UI Emoji" font-size="28px" fill="#343a40" text-anchor="middle" style="white-space: pre;" direction="ltr" dominant-baseline="text-before-edge">Nessuna</text><text x="57.421875" y="33.6" font-family="Cascadia, Segoe UI Emoji" font-size="28px" fill="#343a40" text-anchor="middle" style="white-space: pre;" direction="ltr" dominant-baseline="text-before-edge">Nota</text></g><g transform="translate(207.77100415772293 346.36349259247254) rotate(0 57.421875 16.799999999999955)"><text x="57.421875" y="0" font-family="Cascadia, Segoe UI Emoji" font-size="28px" fill="#2f9e44" text-anchor="middle" style="white-space: pre;" direction="ltr" dominant-baseline="text-before-edge">Nota: A</text></g><g transform="translate(201.05067389544274 707.6165498289101) rotate(0 65.625 16.799999999999955)"><text x="65.625" y="0" font-family="Cascadia, Segoe UI Emoji" font-size="28px" fill="#1971c2" text-anchor="middle" style="white-space: pre;" direction="ltr" dominant-baseline="text-before-edge">Nota: A+</text></g><g transform="translate(514.2311674187076 707.4616437931454) rotate(0 65.625 16.799999999999955)"><text x="65.625" y="0" font-family="Cascadia, Segoe UI Emoji" font-size="28px" fill="#9c36b5" text-anchor="middle" style="white-space: pre;" direction="ltr" dominant-baseline="text-before-edge">Nota: A?</text></g><g stroke-linecap="round"><g transform="translate(260.100855405326 277.21950366703186) rotate(0 -2.3949542082846165e-7 -50.21696805334227)"><path d="M0 0 C0 -29.82, 0 -59.64, 0 -100.43 M0 0 C0 -23.25, 0 -46.5, 0 -100.43" stroke="#2f9e44" stroke-width="4" fill="none"></path></g><g transform="translate(260.100855405326 277.21950366703186) rotate(0 -2.3949542082846165e-7 -50.21696805334227)"><path d="M0 0 L-6.34 -13.59 L6.34 -13.59 L0 0" stroke="none" stroke-width="0" fill="#2f9e44" fill-rule="evenodd"></path><path d="M0 0 C-1.88 -4.04, -3.76 -8.07, -6.34 -13.59 M0 0 C-1.47 -3.15, -2.94 -6.29, -6.34 -13.59 M-6.34 -13.59 C-3.41 -13.59, -0.48 -13.59, 6.34 -13.59 M-6.34 -13.59 C-3.78 -13.59, -1.21 -13.59, 6.34 -13.59 M6.34 -13.59 C4.13 -8.85, 1.91 -4.1, 0 0 M6.34 -13.59 C4.92 -10.54, 3.49 -7.49, 0 0 M0 0 C0 0, 0 0, 0 0 M0 0 C0 0, 0 0, 0 0" stroke="#2f9e44" stroke-width="4" fill="none"></path></g></g><mask></mask><g stroke-linecap="round"><g transform="translate(271.36225701423245 637.9719205433798) rotate(0 -0.03326161467703059 -92.43721571299307)"><path d="M0 0 C-0.03 -71.4, -0.05 -142.81, -0.07 -184.87 M0 0 C-0.02 -42.57, -0.03 -85.13, -0.07 -184.87" stroke="#1971c2" stroke-width="4" fill="none"></path></g><g transform="translate(271.36225701423245 637.9719205433798) rotate(0 -0.03326161467703059 -92.43721571299307)"><path d="M0 0 L-6.34 -13.59 L6.33 -13.6 L0 0" stroke="none" stroke-width="0" fill="#1971c2" fill-rule="evenodd"></path><path d="M0 0 C-2.45 -5.25, -4.9 -10.5, -6.34 -13.59 M0 0 C-1.46 -3.13, -2.92 -6.26, -6.34 -13.59 M-6.34 -13.59 C-2.72 -13.59, 0.91 -13.59, 6.33 -13.6 M-6.34 -13.59 C-2.69 -13.59, 0.96 -13.59, 6.33 -13.6 M6.33 -13.6 C4.14 -8.88, 1.94 -4.17, 0 0 M6.33 -13.6 C4.7 -10.1, 3.07 -6.6, 0 0 M0 0 C0 0, 0 0, 0 0 M0 0 C0 0, 0 0, 0 0" stroke="#1971c2" stroke-width="4" fill="none"></path></g></g><mask></mask><g transform="translate(10 343.0789368066253) rotate(0 52.734375 24)"><text x="52.734375" y="0" font-family="Cascadia, Segoe UI Emoji" font-size="20px" fill="#f08c00" text-anchor="middle" style="white-space: pre;" direction="ltr" dominant-baseline="text-before-edge">Ricevo: A</text><text x="52.734375" y="24" font-family="Cascadia, Segoe UI Emoji" font-size="20px" fill="#f08c00" text-anchor="middle" style="white-space: pre;" direction="ltr" dominant-baseline="text-before-edge">Durata+=1</text></g><g transform="translate(273.58652236909256 180.16748916256256) rotate(0 52.734375 36)"><text x="0" y="0" font-family="Cascadia, Segoe UI Emoji" font-size="20px" fill="#2f9e44" text-anchor="start" style="white-space: pre;" direction="ltr" dominant-baseline="text-before-edge">Ricevo: A</text><text x="0" y="24" font-family="Cascadia, Segoe UI Emoji" font-size="20px" fill="#2f9e44" text-anchor="start" style="white-space: pre;" direction="ltr" dominant-baseline="text-before-edge">Nota=A</text><text x="0" y="48" font-family="Cascadia, Segoe UI Emoji" font-size="20px" fill="#2f9e44" text-anchor="start" style="white-space: pre;" direction="ltr" dominant-baseline="text-before-edge">Durata=1</text></g><g transform="translate(282.98393353642314 498.242895962273) rotate(0 64.453125 48)"><text x="0" y="0" font-family="Cascadia, Segoe UI Emoji" font-size="20px" fill="#1971c2" text-anchor="start" style="white-space: pre;" direction="ltr" dominant-baseline="text-before-edge">Ricevo: b/#</text><text x="0" y="24" font-family="Cascadia, Segoe UI Emoji" font-size="20px" fill="#1971c2" text-anchor="start" style="white-space: pre;" direction="ltr" dominant-baseline="text-before-edge">Salvo A</text><text x="0" y="48" font-family="Cascadia, Segoe UI Emoji" font-size="20px" fill="#1971c2" text-anchor="start" style="white-space: pre;" direction="ltr" dominant-baseline="text-before-edge">Alter=b/#</text><text x="0" y="72" font-family="Cascadia, Segoe UI Emoji" font-size="20px" fill="#1971c2" text-anchor="start" style="white-space: pre;" direction="ltr" dominant-baseline="text-before-edge">Durata=1</text></g><g transform="translate(300.83443505264586 756.0279625570465) rotate(0 123.046875 60)"><text x="123.046875" y="0" font-family="Cascadia, Segoe UI Emoji" font-size="20px" fill="#1971c2" text-anchor="middle" style="white-space: pre;" direction="ltr" dominant-baseline="text-before-edge">Ricevo: b/#</text><text x="123.046875" y="24" font-family="Cascadia, Segoe UI Emoji" font-size="20px" fill="#1971c2" text-anchor="middle" style="white-space: pre;" direction="ltr" dominant-baseline="text-before-edge">Durata+=1 *</text><text x="123.046875" y="48" font-family="Cascadia, Segoe UI Emoji" font-size="20px" fill="#1971c2" text-anchor="middle" style="white-space: pre;" direction="ltr" dominant-baseline="text-before-edge"></text><text x="123.046875" y="72" font-family="Cascadia, Segoe UI Emoji" font-size="20px" fill="#1971c2" text-anchor="middle" style="white-space: pre;" direction="ltr" dominant-baseline="text-before-edge">*bisogna distringuere</text><text x="123.046875" y="96" font-family="Cascadia, Segoe UI Emoji" font-size="20px" fill="#1971c2" text-anchor="middle" style="white-space: pre;" direction="ltr" dominant-baseline="text-before-edge">i casi fra b e #</text></g><g transform="translate(387.8350759817549 287.1789660089762) rotate(0 52.734375 48)"><text x="52.734375" y="0" font-family="Cascadia, Segoe UI Emoji" font-size="20px" fill="#e8590c" text-anchor="middle" style="white-space: pre;" direction="ltr" dominant-baseline="text-before-edge">Ricevo: B</text><text x="52.734375" y="24" font-family="Cascadia, Segoe UI Emoji" font-size="20px" fill="#e8590c" text-anchor="middle" style="white-space: pre;" direction="ltr" dominant-baseline="text-before-edge">Salvo A</text><text x="52.734375" y="48" font-family="Cascadia, Segoe UI Emoji" font-size="20px" fill="#e8590c" text-anchor="middle" style="white-space: pre;" direction="ltr" dominant-baseline="text-before-edge">Nota=B</text><text x="52.734375" y="72" font-family="Cascadia, Segoe UI Emoji" font-size="20px" fill="#e8590c" text-anchor="middle" style="white-space: pre;" direction="ltr" dominant-baseline="text-before-edge">Durata=1</text></g><g stroke-linecap="round"><g transform="translate(489.38363004375424 711.4813171348633) rotate(0 -72.3702588247761 0)"><path d="M0 0 C-36.71 0, -73.42 0, -144.74 0" stroke="#9c36b5" stroke-width="4.5" fill="none" stroke-dasharray="1.5 10"></path></g><g transform="translate(489.38363004375424 711.4813171348633) rotate(0 -72.3702588247761 0)"><path d="M0 0 L-13.59 6.34 L-13.59 -6.34 L0 0" stroke="none" stroke-width="0" fill="#9c36b5" fill-rule="evenodd"></path><path d="M0 0 C-3.45 1.61, -6.9 3.22, -13.59 6.34 M-13.59 6.34 C-13.59 2.71, -13.59 -0.92, -13.59 -6.34 M-13.59 -6.34 C-10.5 -4.89, -7.4 -3.45, 0 0 M0 0 C0 0, 0 0, 0 0" stroke="#9c36b5" stroke-width="4.5" fill="none"></path></g></g><mask></mask><g stroke-linecap="round"><g transform="translate(248.90746945112187 450.4396705160939) rotate(0 7.275957614183426e-12 91.14383413537871)"><path d="M0 0 C0 60.84, 0 121.68, 0 182.29" stroke="#2f9e44" stroke-width="2.5" fill="none" stroke-dasharray="8 10"></path></g><g transform="translate(248.90746945112187 450.4396705160939) rotate(0 7.275957614183426e-12 91.14383413537871)"><path d="M0 0 L6.34 13.59 L-6.34 13.59 L0 0" stroke="none" stroke-width="0" fill="#2f9e44" fill-rule="evenodd"></path><path d="M0 0 C2.12 4.54, 4.23 9.07, 6.34 13.59 M6.34 13.59 C1.48 13.59, -3.39 13.59, -6.34 13.59 M-6.34 13.59 C-4.41 9.46, -2.48 5.32, 0 0 M0 0 C0 0, 0 0, 0 0" stroke="#2f9e44" stroke-width="2.5" fill="none"></path></g></g><mask></mask><g transform="translate(127.7170406083751 498.2428960929701) rotate(0 52.734375 36)"><text x="105.46875" y="0" font-family="Cascadia, Segoe UI Emoji" font-size="20px" fill="#2f9e44" text-anchor="end" style="white-space: pre;" direction="ltr" dominant-baseline="text-before-edge">Ricevo: B</text><text x="105.46875" y="24" font-family="Cascadia, Segoe UI Emoji" font-size="20px" fill="#2f9e44" text-anchor="end" style="white-space: pre;" direction="ltr" dominant-baseline="text-before-edge">Salvo A+</text><text x="105.46875" y="48" font-family="Cascadia, Segoe UI Emoji" font-size="20px" fill="#2f9e44" text-anchor="end" style="white-space: pre;" direction="ltr" dominant-baseline="text-before-edge">Durata=1</text></g><g transform="translate(353.5017891867901 682.8319208875728) rotate(0 52.734375 12)"><text x="52.734375" y="0" font-family="Cascadia, Segoe UI Emoji" font-size="20px" fill="#9c36b5" text-anchor="middle" style="white-space: pre;" direction="ltr" dominant-baseline="text-before-edge">Ricevo: A</text></g><g stroke-linecap="round"><g transform="translate(347.43705904680246 735.0457345815594) rotate(0 72.91399814656324 0)"><path d="M0 0 C41.02 0, 82.03 0, 145.83 0 M0 0 C35.32 0, 70.64 0, 145.83 0" stroke="#1971c2" stroke-width="4" fill="none"></path></g><g transform="translate(347.43705904680246 735.0457345815594) rotate(0 72.91399814656324 0)"><path d="M0 0 L13.59 -6.34 L13.59 6.34 L0 0" stroke="none" stroke-width="0" fill="#1971c2" fill-rule="evenodd"></path><path d="M0 0 C3.82 -1.78, 7.65 -3.57, 13.59 -6.34 M0 0 C3.29 -1.54, 6.58 -3.07, 13.59 -6.34 M13.59 -6.34 C13.59 -1.4, 13.59 3.54, 13.59 6.34 M13.59 -6.34 C13.59 -3.6, 13.59 -0.87, 13.59 6.34 M13.59 6.34 C8.83 4.12, 4.07 1.9, 0 0 M13.59 6.34 C10.85 5.06, 8.1 3.78, 0 0 M0 0 C0 0, 0 0, 0 0 M0 0 C0 0, 0 0, 0 0" stroke="#1971c2" stroke-width="4" fill="none"></path></g></g><mask></mask><g stroke-linecap="round"><g transform="translate(338.4299950692657 396.7538874675165) rotate(0 112.85104719680749 121.8883678355678)"><path d="M0 0 C78.25 45.18, 156.49 90.35, 225.7 130.31 M225.7 130.31 C225.7 159.5, 225.7 188.7, 225.7 243.78" stroke="#e03131" stroke-width="2.5" fill="none" stroke-dasharray="8 10"></path></g><g transform="translate(338.4299950692657 396.7538874675165) rotate(0 112.85104719680749 121.8883678355678)"><path d="M0 0 L14.94 1.31 L8.6 12.29 L0 0" stroke="none" stroke-width="0" fill="#e03131" fill-rule="evenodd"></path><path d="M0 0 C5.18 0.45, 10.36 0.91, 14.94 1.31 M14.94 1.31 C13.31 4.13, 11.68 6.96, 8.6 12.29 M8.6 12.29 C5.48 7.83, 2.36 3.37, 0 0 M0 0 C0 0, 0 0, 0 0" stroke="#e03131" stroke-width="2.5" fill="none"></path></g></g><mask></mask><g stroke-linecap="round"><g transform="translate(344.932606344315 376.88455540409996) rotate(0 119.67719457716157 131.0688432065233)"><path d="M0 0 C57.17 33.01, 114.34 66.02, 239.35 138.19 M0 0 C63.8 36.83, 127.6 73.67, 239.35 138.19 M239.35 138.19 C239.35 164.83, 239.35 191.46, 239.35 262.14 M239.35 138.19 C239.35 179.73, 239.35 221.27, 239.35 262.14" stroke="#2f9e44" stroke-width="4" fill="none"></path></g><g transform="translate(344.932606344315 376.88455540409996) rotate(0 119.67719457716157 131.0688432065233)"><path d="M0 0 L14.94 1.31 L8.6 12.29 L0 0" stroke="none" stroke-width="0" fill="#2f9e44" fill-rule="evenodd"></path><path d="M0 0 C3.57 0.31, 7.14 0.62, 14.94 1.31 M0 0 C3.98 0.35, 7.97 0.7, 14.94 1.31 M14.94 1.31 C13.58 3.67, 12.22 6.03, 8.6 12.29 M14.94 1.31 C12.82 4.99, 10.69 8.67, 8.6 12.29 M8.6 12.29 C5.18 7.4, 1.76 2.52, 0 0 M8.6 12.29 C5.56 7.93, 2.51 3.58, 0 0 M0 0 C0 0, 0 0, 0 0 M0 0 C0 0, 0 0, 0 0" stroke="#2f9e44" stroke-width="4" fill="none"></path></g></g><mask></mask><g transform="translate(434.2271249430487 537.708739863655) rotate(0 58.59375 48)"><text x="117.1875" y="0" font-family="Cascadia, Segoe UI Emoji" font-size="20px" fill="#e03131" text-anchor="end" style="white-space: pre;" direction="ltr" dominant-baseline="text-before-edge">Ricevo: B</text><text x="117.1875" y="24" font-family="Cascadia, Segoe UI Emoji" font-size="20px" fill="#e03131" text-anchor="end" style="white-space: pre;" direction="ltr" dominant-baseline="text-before-edge">Salvo A+,A</text><text x="117.1875" y="48" font-family="Cascadia, Segoe UI Emoji" font-size="20px" fill="#e03131" text-anchor="end" style="white-space: pre;" direction="ltr" dominant-baseline="text-before-edge">Nota=B</text><text x="117.1875" y="72" font-family="Cascadia, Segoe UI Emoji" font-size="20px" fill="#e03131" text-anchor="end" style="white-space: pre;" direction="ltr" dominant-baseline="text-before-edge">Durata=1</text></g><g transform="translate(358.3025930419826 36.2482742787779) rotate(0 87.890625 48)"><text x="0" y="0" font-family="Cascadia, Segoe UI Emoji" font-size="20px" fill="#343a40" text-anchor="start" style="white-space: pre;" direction="ltr" dominant-baseline="text-before-edge">Durata=0</text><text x="0" y="24" font-family="Cascadia, Segoe UI Emoji" font-size="20px" fill="#343a40" text-anchor="start" style="white-space: pre;" direction="ltr" dominant-baseline="text-before-edge">Alter* =Nessuna</text><text x="0" y="48" font-family="Cascadia, Segoe UI Emoji" font-size="20px" fill="#343a40" text-anchor="start" style="white-space: pre;" direction="ltr" dominant-baseline="text-before-edge"></text><text x="0" y="72" font-family="Cascadia, Segoe UI Emoji" font-size="20px" fill="#343a40" text-anchor="start" style="white-space: pre;" direction="ltr" dominant-baseline="text-before-edge">*Alterazione</text></g><g transform="translate(592.7467918006878 537.7087405699313) rotate(0 52.734375 36)"><text x="0" y="0" font-family="Cascadia, Segoe UI Emoji" font-size="20px" fill="#2f9e44" text-anchor="start" style="white-space: pre;" direction="ltr" dominant-baseline="text-before-edge">Ricevo: A</text><text x="0" y="24" font-family="Cascadia, Segoe UI Emoji" font-size="20px" fill="#2f9e44" text-anchor="start" style="white-space: pre;" direction="ltr" dominant-baseline="text-before-edge">Salvo A+</text><text x="0" y="48" font-family="Cascadia, Segoe UI Emoji" font-size="20px" fill="#2f9e44" text-anchor="start" style="white-space: pre;" direction="ltr" dominant-baseline="text-before-edge">Durata=2</text></g><g stroke-linecap="round"><g transform="translate(384.1377558217064 340.867509386404) rotate(0 -20.644772397296038 0)"><path d="M0 0 C-6.88 0, -34.41 0, -41.29 0" stroke="#e8590c" stroke-width="2.5" fill="none" stroke-dasharray="8 10"></path></g><g transform="translate(384.1377558217064 340.867509386404) rotate(0 -20.644772397296038 0)"><path d="M0 0 L-13.59 6.34 L-13.59 -6.34 L0 0" stroke="none" stroke-width="0" fill="#e8590c" fill-rule="evenodd"></path><path d="M0 0 C-5.3 2.47, -10.6 4.94, -13.59 6.34 M-13.59 6.34 C-13.59 3.6, -13.59 0.87, -13.59 -6.34 M-13.59 -6.34 C-8.83 -4.12, -4.07 -1.9, 0 0 M0 0 C0 0, 0 0, 0 0" stroke="#e8590c" stroke-width="2.5" fill="none"></path></g></g><mask></mask><g stroke-linecap="round"><g transform="translate(169.73833516883315 376.85069651423055) rotate(0 -23.467029331455706 0)"><path d="M0 0 C-7.82 0, -39.11 0, -46.93 0" stroke="#f08c00" stroke-width="2.5" fill="none" stroke-dasharray="8 10"></path></g><g transform="translate(169.73833516883315 376.85069651423055) rotate(0 -23.467029331455706 0)"><path d="M-46.93 0 L-33.34 -6.34 L-33.34 6.34 L-46.93 0" stroke="none" stroke-width="0" fill="#f08c00" fill-rule="evenodd"></path><path d="M-46.93 0 C-44.01 -1.36, -41.09 -2.72, -33.34 -6.34 M-33.34 -6.34 C-33.34 -2.09, -33.34 2.16, -33.34 6.34 M-33.34 6.34 C-38.74 3.82, -44.15 1.3, -46.93 0 M-46.93 0 C-46.93 0, -46.93 0, -46.93 0" stroke="#f08c00" stroke-width="2.5" fill="none"></path></g></g><mask></mask><g stroke-linecap="round"><g transform="translate(337.4686870512669 320.5106703987758) rotate(0 23.33453438521974 0)"><path d="M0 0 C7.78 0, 38.89 0, 46.67 0" stroke="#e8590c" stroke-width="2.5" fill="none" stroke-dasharray="8 10"></path></g><g transform="translate(337.4686870512669 320.5106703987758) rotate(0 23.33453438521974 0)"><path d="M0 0 L13.59 -6.34 L13.59 6.34 L0 0" stroke="none" stroke-width="0" fill="#e8590c" fill-rule="evenodd"></path><path d="M0 0 C2.89 -1.35, 5.78 -2.7, 13.59 -6.34 M13.59 -6.34 C13.59 -2.34, 13.59 1.66, 13.59 6.34 M13.59 6.34 C9.15 4.27, 4.71 2.2, 0 0 M0 0 C0 0, 0 0, 0 0" stroke="#e8590c" stroke-width="2.5" fill="none"></path></g></g><mask></mask><g stroke-linecap="round"><g transform="translate(123.29673654783983 356.49385752660237) rotate(0 23.22079931049302 0)"><path d="M0 0 C7.74 0, 38.7 0, 46.44 0" stroke="#f08c00" stroke-width="2.5" fill="none" stroke-dasharray="8 10"></path></g><g transform="translate(123.29673654783983 356.49385752660237) rotate(0 23.22079931049302 0)"><path d="M46.44 0 L32.85 6.34 L32.85 -6.34 L46.44 0" stroke="none" stroke-width="0" fill="#f08c00" fill-rule="evenodd"></path><path d="M46.44 0 C43.37 1.43, 40.31 2.86, 32.85 6.34 M32.85 6.34 C32.85 2.58, 32.85 -1.18, 32.85 -6.34 M32.85 -6.34 C36.98 -4.41, 41.12 -2.48, 46.44 0 M46.44 0 C46.44 0, 46.44 0, 46.44 0" stroke="#f08c00" stroke-width="2.5" fill="none"></path></g></g><mask></mask></svg>